0
SECTION
  2
HEADER
  9
$ACADVER
  1
AC1012
  9
$DWGCODEPAGE
  3
gb2312
  9
$INSBASE
 10
0.0
 20
0.0
 30
0.0
  9
$EXTMIN
 10
1.000000000000000E+20
 20
1.000000000000000E+20
 30
1.000000000000000E+20
  9
$EXTMAX
 10
-1.000000000000000E+20
 20
-1.000000000000000E+20
 30
-1.000000000000000E+20
  9
$LIMMIN
 10
0.0
 20
0.0
  9
$LIMMAX
 10
420.0
 20
297.0
  9
$ORTHOMODE
 70
     0
  9
$REGENMODE
 70
     1
  9
$FILLMODE
 70
     1
  9
$QTEXTMODE
 70
     0
  9
$MIRRTEXT
 70
     1
  9
$DRAGMODE
 70
     2
  9
$LTSCALE
 40
1.0
  9
$OSMODE
 70
    37
  9
$ATTMODE
 70
     1
  9
$TEXTSIZE
 40
2.5
  9
$TRACEWID
 40
1.0
  9
$TEXTSTYLE
  7
STANDARD
  9
$CLAYER
  8
0
  9
$CELTYPE
  6
BYLAYER
  9
$CECOLOR
 62
   256
  9
$CELTSCALE
 40
1.0
  9
$DELOBJ
 70
     1
  9
$DISPSILH
 70
     0
  9
$DIMSCALE
 40
1.0
  9
$DIMASZ
 40
2.5
  9
$DIMEXO
 40
0.625
  9
$DIMDLI
 40
3.75
  9
$DIMRND
 40
0.0
  9
$DIMDLE
 40
0.0
  9
$DIMEXE
 40
1.25
  9
$DIMTP
 40
0.0
  9
$DIMTM
 40
0.0
  9
$DIMTXT
 40
2.5
  9
$DIMCEN
 40
2.5
  9
$DIMTSZ
 40
0.0
  9
$DIMTOL
 70
     0
  9
$DIMLIM
 70
     0
  9
$DIMTIH
 70
     0
  9
$DIMTOH
 70
     0
  9
$DIMSE1
 70
     0
  9
$DIMSE2
 70
     0
  9
$DIMTAD
 70
     1
  9
$DIMZIN
 70
     8
  9
$DIMBLK
  1

  9
$DIMASO
 70
     1
  9
$DIMSHO
 70
     1
  9
$DIMPOST
  1

  9
$DIMAPOST
  1

  9
$DIMALT
 70
     0
  9
$DIMALTD
 70
     3
  9
$DIMALTF
 40
0.03937007874016
  9
$DIMLFAC
 40
1.0
  9
$DIMTOFL
 70
     1
  9
$DIMTVP
 40
0.0
  9
$DIMTIX
 70
     0
  9
$DIMSOXD
 70
     0
  9
$DIMSAH
 70
     0
  9
$DIMBLK1
  1

  9
$DIMBLK2
  1

  9
$DIMSTYLE
  2
ISO-25
  9
$DIMCLRD
 70
     0
  9
$DIMCLRE
 70
     0
  9
$DIMCLRT
 70
     0
  9
$DIMTFAC
 40
1.0
  9
$DIMGAP
 40
0.625
  9
$DIMJUST
 70
     0
  9
$DIMSD1
 70
     0
  9
$DIMSD2
 70
     0
  9
$DIMTOLJ
 70
     0
  9
$DIMTZIN
 70
     8
  9
$DIMALTZ
 70
     0
  9
$DIMALTTZ
 70
     0
  9
$DIMFIT
 70
     3
  9
$DIMUPT
 70
     0
  9
$DIMUNIT
 70
     2
  9
$DIMDEC
 70
     2
  9
$DIMTDEC
 70
     2
  9
$DIMALTU
 70
     2
  9
$DIMALTTD
 70
     3
  9
$DIMTXSTY
  7
STANDARD
  9
$DIMAUNIT
 70
     0
  9
$LUNITS
 70
     2
  9
$LUPREC
 70
     4
  9
$SKETCHINC
 40
1.0
  9
$FILLETRAD
 40
10.0
  9
$AUNITS
 70
     0
  9
$AUPREC
 70
     0
  9
$MENU
  1
.
  9
$ELEVATION
 40
0.0
  9
$PELEVATION
 40
0.0
  9
$THICKNESS
 40
0.0
  9
$LIMCHECK
 70
     0
  9
$BLIPMODE
 70
     0
  9
$CHAMFERA
 40
10.0
  9
$CHAMFERB
 40
10.0
  9
$CHAMFERC
 40
20.0
  9
$CHAMFERD
 40
0.0
  9
$SKPOLY
 70
     0
  9
$TDCREATE
 40
2453935.933843252
  9
$TDUPDATE
 40
2453935.934398680
  9
$TDINDWG
 40
0.0005563542
  9
$TDUSRTIMER
 40
0.0005562384
  9
$USRTIMER
 70
     1
  9
$ANGBASE
 50
0.0
  9
$ANGDIR
 70
     0
  9
$PDMODE
 70
     0
  9
$PDSIZE
 40
0.0
  9
$PLINEWID
 40
0.0
  9
$COORDS
 70
     1
  9
$SPLFRAME
 70
     0
  9
$SPLINETYPE
 70
     6
  9
$SPLINESEGS
 70
     8
  9
$ATTDIA
 70
     0
  9
$ATTREQ
 70
     1
  9
$HANDLING
 70
 22529
  9
$HANDSEED
  5
4A
  9
$SURFTAB1
 70
     6
  9
$SURFTAB2
 70
     6
  9
$SURFTYPE
 70
     6
  9
$SURFU
 70
     6
  9
$SURFV
 70
     6
  9
$UCSNAME
  2

  9
$UCSORG
 10
0.0
 20
0.0
 30
0.0
  9
$UCSXDIR
 10
1.0
 20
0.0
 30
0.0
  9
$UCSYDIR
 10
0.0
 20
1.0
 30
0.0
  9
$PUCSNAME
  2

  9
$PUCSORG
 10
0.0
 20
0.0
 30
0.0
  9
$PUCSXDIR
 10
1.0
 20
0.0
 30
0.0
  9
$PUCSYDIR
 10
0.0
 20
1.0
 30
0.0
  9
$USERI1
 70
     0
  9
$USERI2
 70
     0
  9
$USERI3
 70
     0
  9
$USERI4
 70
     0
  9
$USERI5
 70
     0
  9
$USERR1
 40
0.0
  9
$USERR2
 40
0.0
  9
$USERR3
 40
0.0
  9
$USERR4
 40
0.0
  9
$USERR5
 40
0.0
  9
$WORLDVIEW
 70
     1
  9
$SHADEDGE
 70
     3
  9
$SHADEDIF
 70
    70
  9
$TILEMODE
 70
     1
  9
$MAXACTVP
 70
    64
  9
$PINSBASE
 10
0.0
 20
0.0
 30
0.0
  9
$PLIMCHECK
 70
     0
  9
$PEXTMIN
 10
1.000000000000000E+20
 20
1.000000000000000E+20
 30
1.000000000000000E+20
  9
$PEXTMAX
 10
-1.000000000000000E+20
 20
-1.000000000000000E+20
 30
-1.000000000000000E+20
  9
$PLIMMIN
 10
0.0
 20
0.0
  9
$PLIMMAX
 10
420.0
 20
297.0
  9
$UNITMODE
 70
     0
  9
$VISRETAIN
 70
     1
  9
$PLINEGEN
 70
     0
  9
$PSLTSCALE
 70
     1
  9
$TREEDEPTH
 70
  3020
  9
$PICKSTYLE
 70
     1
  9
$CMLSTYLE
  2
STANDARD
  9
$CMLJUST
 70
     0
  9
$CMLSCALE
 40
20.0
  9
$SAVEIMAGES
 70
     1
  0
ENDSEC
  0
SECTION
  2
CLASSES
  0
CLASS
  1
ACDBDICTIONARYWDFLT
  2
AcDbDictionaryWithDefault
  3
AutoCAD 2000
 90
    32768
280
     0
281
     0
  0
CLASS
  1
ACDBPLACEHOLDER
  2
AcDbPlaceHolder
  3
AutoCAD 2000
 90
    32768
280
     0
281
     0
  0
CLASS
  1
LAYOUT
  2
AcDbLayout
  3
AutoCAD 2000
 90
    32768
280
     0
281
     0
  0
CLASS
  1
DICTIONARYVAR
  2
AcDbDictionaryVar
  3
AutoCAD 2000
 90
    32768
280
     0
281
     0
  0
CLASS
  1
LONG_TRANSACTION
  2
AcDbLongTransaction
  3
AutoCAD 2000
 90
    32768
280
     0
281
     0
  0
CLASS
  1
LWPOLYLINE
  2
AcDbPolyline
  3
AutoCAD 2000
 90
    32768
280
     0
281
     1
  0
CLASS
  1
HATCH
  2
AcDbHatch
  3
AutoCAD 2000
 90
    32768
280
     0
281
     1
  0
CLASS
  1
XRECORD
  2
AcDbXrecord
  3
AutoCAD 2000
 90
    32768
280
     0
281
     0
  0
ENDSEC
  0
SECTION
  2
TABLES
  0
TABLE
  2
VPORT
  5
8
330
0
100
AcDbSymbolTable
 70
     2
  0
VPORT
  5
43
330
8
100
AcDbSymbolTableRecord
100
AcDbViewportTableRecord
  2
*ACTIVE
 70
     0
 10
0.0
 20
0.0
 11
1.0
 21
1.0
 12
505.3812210517317
 22
257.5500453436709
 13
0.0
 23
0.0
 14
10.0
 24
10.0
 15
10.0
 25
10.0
 16
0.0
 26
0.0
 36
1.0
 17
0.0
 27
0.0
 37
0.0
 40
515.1000906873419
 41
1.962264150943396
 42
50.0
 43
0.0
 44
0.0
 50
0.0
 51
0.0
 71
     0
 72
   100
 73
     1
 74
     3
 75
     0
 76
     0
 77
     0
 78
     0
  0
ENDTAB
  0
TABLE
  2
LTYPE
  5
5
330
0
100
AcDbSymbolTable
 70
     1
  0
LTYPE
  5
14
330
5
100
AcDbSymbolTableRecord
100
AcDbLinetypeTableRecord
  2
BYBLOCK
 70
     0
  3

 72
    65
 73
     0
 40
0.0
  0
LTYPE
  5
15
330
5
100
AcDbSymbolTableRecord
100
AcDbLinetypeTableRecord
  2
BYLAYER
 70
     0
  3

 72
    65
 73
     0
 40
0.0
  0
LTYPE
  5
16
330
5
100
AcDbSymbolTableRecord
100
AcDbLinetypeTableRecord
  2
CONTINUOUS
 70
     0
  3
Solid line
 72
    65
 73
     0
 40
0.0
  0
ENDTAB
  0
TABLE
  2
LAYER
  5
2
330
0
100
AcDbSymbolTable
 70
     1
  0
LAYER
  5
10
330
2
100
AcDbSymbolTableRecord
100
AcDbLayerTableRecord
  2
0
 70
     0
 62
     7
  6
CONTINUOUS
  0
ENDTAB
  0
TABLE
  2
STYLE
  5
3
330
0
100
AcDbSymbolTable
 70
     1
  0
STYLE
  5
11
330
3
100
AcDbSymbolTableRecord
100
AcDbTextStyleTableRecord
  2
STANDARD
 70
     0
 40
0.0
 41
1.0
 50
0.0
 71
     0
 42
2.5
  3
txt
  4

  0
ENDTAB
  0
TABLE
  2
VIEW
  5
6
330
0
100
AcDbSymbolTable
 70
     0
  0
ENDTAB
  0
TABLE
  2
UCS
  5
7
330
0
100
AcDbSymbolTable
 70
     0
  0
ENDTAB
  0
TABLE
  2
APPID
  5
9
330
0
100
AcDbSymbolTable
 70
     1
  0
APPID
  5
12
330
9
100
AcDbSymbolTableRecord
100
AcDbRegAppTableRecord
  2
ACAD
 70
     0
  0
ENDTAB
  0
TABLE
  2
DIMSTYLE
  5
A
330
0
100
AcDbSymbolTable
 70
     1
  0
DIMSTYLE
105
27
330
A
100
AcDbSymbolTableRecord
100
AcDbDimStyleTableRecord
  2
ISO-25
 70
     0
  3

  4

  5

  6

  7

 40
1.0
 41
2.5
 42
0.625
 43
3.75
 44
1.25
 45
0.0
 46
0.0
 47
0.0
 48
0.0
140
2.5
141
2.5
142
0.0
143
0.03937007874016
144
1.0
145
0.0
146
1.0
147
0.625
 71
     0
 72
     0
 73
     0
 74
     0
 75
     0
 76
     0
 77
     1
 78
     8
170
     0
171
     3
172
     1
173
     0
174
     0
175
     0
176
     0
177
     0
178
     0
270
     2
271
     2
272
     2
273
     2
274
     3
340
11
275
     0
280
     0
281
     0
282
     0
283
     0
284
     8
285
     0
286
     0
287
     3
288
     0
  0
ENDTAB
  0
TABLE
  2
BLOCK_RECORD
  5
1
330
0
100
AcDbSymbolTable
 70
     1
  0
BLOCK_RECORD
  5
1F
102
{ACAD_XDICTIONARY
360
46
102
}
330
1
100
AcDbSymbolTableRecord
100
AcDbBlockTableRecord
  2
*MODEL_SPACE
  0
BLOCK_RECORD
  5
1B
102
{ACAD_XDICTIONARY
360
44
102
}
330
1
100
AcDbSymbolTableRecord
100
AcDbBlockTableRecord
  2
*PAPER_SPACE
  0
ENDTAB
  0
ENDSEC
  0
SECTION
  2
BLOCKS
  0
BLOCK
  5
20
330
1F
100
AcDbEntity
  8
0
100
AcDbBlockBegin
  2
*MODEL_SPACE
 70
     0
 10
0.0
 20
0.0
 30
0.0
  3
*MODEL_SPACE
  1

  0
ENDBLK
  5
21
330
1F
100
AcDbEntity
  8
0
100
AcDbBlockEnd
  0
BLOCK
  5
1C
330
1B
100
AcDbEntity
 67
     1
  8
0
100
AcDbBlockBegin
  2
*PAPER_SPACE
 70
     0
 10
0.0
 20
0.0
 30
0.0
  3
*PAPER_SPACE
  1

  0
ENDBLK
  5
1D
330
1B
100
AcDbEntity
 67
     1
  8
0
100
AcDbBlockEnd
  0
ENDSEC
  0
SECTION
  2
ENTITIES
  0
SPLINE
  5
100
330
1F
100
AcDbEntity
  8
0
 62
     7
100
AcDbSpline
210
0.000000
220
0.000000
230
1.0
 70
     8
 71
     3
 72
     8
 73
     4
 42
0.0000000001
 43
0.0000000001
 44
0.0000000001
 12
0.000000
 22
0.000000
 32
0.000000
 13
0.000000
 23
0.000000
 33
0.000000
 40
0.000000
 40
0.000000
 40
0.000000
 40
0.000000
 40
1.000000
 40
1.000000
 40
1.000000
 40
1.000000
 10
315.500017
 20
194.000002
 30
0.000000
 10
315.500300
 20
194.261862
 30
0.000000
 10
315.430224
 20
194.523367
 30
0.000000
 10
315.299047
 20
194.750002
 30
0.000000
  0
SPLINE
  5
101
330
1F
100
AcDbEntity
  8
0
 62
     7
100
AcDbSpline
210
0.000000
220
0.000000
230
1.0
 70
     8
 71
     3
 72
     8
 73
     4
 42
0.0000000001
 43
0.0000000001
 44
0.0000000001
 12
0.000000
 22
0.000000
 32
0.000000
 13
0.000000
 23
0.000000
 33
0.000000
 40
0.000000
 40
0.000000
 40
0.000000
 40
0.000000
 40
1.000000
 40
1.000000
 40
1.000000
 40
1.000000
 10
315.299047
 20
194.750002
 30
0.000000
 10
315.168350
 20
194.976923
 30
0.000000
 10
314.976919
 20
195.168357
 30
0.000000
 10
314.750012
 20
195.299040
 30
0.000000
  0
SPLINE
  5
102
330
1F
100
AcDbEntity
  8
0
 62
     7
100
AcDbSpline
210
0.000000
220
0.000000
230
1.0
 70
     8
 71
     3
 72
     8
 73
     4
 42
0.0000000001
 43
0.0000000001
 44
0.0000000001
 12
0.000000
 22
0.000000
 32
0.000000
 13
0.000000
 23
0.000000
 33
0.000000
 40
0.000000
 40
0.000000
 40
0.000000
 40
0.000000
 40
1.000000
 40
1.000000
 40
1.000000
 40
1.000000
 10
314.750012
 20
195.299040
 30
0.000000
 10
314.523359
 20
195.430217
 30
0.000000
 10
314.261880
 20
195.500287
 30
0.000000
 10
314.000006
 20
195.500002
 30
0.000000
  0
SPLINE
  5
103
330
1F
100
AcDbEntity
  8
0
 62
     7
100
AcDbSpline
210
0.000000
220
0.000000
230
1.0
 70
     8
 71
     3
 72
     8
 73
     4
 42
0.0000000001
 43
0.0000000001
 44
0.0000000001
 12
0.000000
 22
0.000000
 32
0.000000
 13
0.000000
 23
0.000000
 33
0.000000
 40
0.000000
 40
0.000000
 40
0.000000
 40
0.000000
 40
1.000000
 40
1.000000
 40
1.000000
 40
1.000000
 10
314.000006
 20
195.500002
 30
0.000000
 10
313.738161
 20
195.500284
 30
0.000000
 10
313.476653
 20
195.430217
 30
0.000000
 10
313.250001
 20
195.299040
 30
0.000000
  0
SPLINE
  5
104
330
1F
100
AcDbEntity
  8
0
 62
     7
100
AcDbSpline
210
0.000000
220
0.000000
230
1.0
 70
     8
 71
     3
 72
     8
 73
     4
 42
0.0000000001
 43
0.0000000001
 44
0.0000000001
 12
0.000000
 22
0.000000
 32
0.000000
 13
0.000000
 23
0.000000
 33
0.000000
 40
0.000000
 40
0.000000
 40
0.000000
 40
0.000000
 40
1.000000
 40
1.000000
 40
1.000000
 40
1.000000
 10
313.250001
 20
195.299040
 30
0.000000
 10
313.023094
 20
195.168357
 30
0.000000
 10
312.831663
 20
194.976923
 30
0.000000
 10
312.700966
 20
194.750002
 30
0.000000
  0
SPLINE
  5
105
330
1F
100
AcDbEntity
  8
0
 62
     7
100
AcDbSpline
210
0.000000
220
0.000000
230
1.0
 70
     8
 71
     3
 72
     8
 73
     4
 42
0.0000000001
 43
0.0000000001
 44
0.0000000001
 12
0.000000
 22
0.000000
 32
0.000000
 13
0.000000
 23
0.000000
 33
0.000000
 40
0.000000
 40
0.000000
 40
0.000000
 40
0.000000
 40
1.000000
 40
1.000000
 40
1.000000
 40
1.000000
 10
312.700966
 20
194.750002
 30
0.000000
 10
312.569789
 20
194.523367
 30
0.000000
 10
312.499713
 20
194.261862
 30
0.000000
 10
312.499995
 20
194.000002
 30
0.000000
  0
SPLINE
  5
106
330
1F
100
AcDbEntity
  8
0
 62
     7
100
AcDbSpline
210
0.000000
220
0.000000
230
1.0
 70
     8
 71
     3
 72
     8
 73
     4
 42
0.0000000001
 43
0.0000000001
 44
0.0000000001
 12
0.000000
 22
0.000000
 32
0.000000
 13
0.000000
 23
0.000000
 33
0.000000
 40
0.000000
 40
0.000000
 40
0.000000
 40
0.000000
 40
1.000000
 40
1.000000
 40
1.000000
 40
1.000000
 10
312.499995
 20
194.000002
 30
0.000000
 10
312.499713
 20
193.738143
 30
0.000000
 10
312.569789
 20
193.476635
 30
0.000000
 10
312.700966
 20
193.250002
 30
0.000000
  0
SPLINE
  5
107
330
1F
100
AcDbEntity
  8
0
 62
     7
100
AcDbSpline
210
0.000000
220
0.000000
230
1.0
 70
     8
 71
     3
 72
     8
 73
     4
 42
0.0000000001
 43
0.0000000001
 44
0.0000000001
 12
0.000000
 22
0.000000
 32
0.000000
 13
0.000000
 23
0.000000
 33
0.000000
 40
0.000000
 40
0.000000
 40
0.000000
 40
0.000000
 40
1.000000
 40
1.000000
 40
1.000000
 40
1.000000
 10
312.700966
 20
193.250002
 30
0.000000
 10
312.831663
 20
193.023082
 30
0.000000
 10
313.023094
 20
192.831645
 30
0.000000
 10
313.250001
 20
192.700965
 30
0.000000
  0
SPLINE
  5
108
330
1F
100
AcDbEntity
  8
0
 62
     7
100
AcDbSpline
210
0.000000
220
0.000000
230
1.0
 70
     8
 71
     3
 72
     8
 73
     4
 42
0.0000000001
 43
0.0000000001
 44
0.0000000001
 12
0.000000
 22
0.000000
 32
0.000000
 13
0.000000
 23
0.000000
 33
0.000000
 40
0.000000
 40
0.000000
 40
0.000000
 40
0.000000
 40
1.000000
 40
1.000000
 40
1.000000
 40
1.000000
 10
313.250001
 20
192.700965
 30
0.000000
 10
313.476653
 20
192.569785
 30
0.000000
 10
313.738161
 20
192.499715
 30
0.000000
 10
314.000006
 20
192.500003
 30
0.000000
  0
SPLINE
  5
109
330
1F
100
AcDbEntity
  8
0
 62
     7
100
AcDbSpline
210
0.000000
220
0.000000
230
1.0
 70
     8
 71
     3
 72
     8
 73
     4
 42
0.0000000001
 43
0.0000000001
 44
0.0000000001
 12
0.000000
 22
0.000000
 32
0.000000
 13
0.000000
 23
0.000000
 33
0.000000
 40
0.000000
 40
0.000000
 40
0.000000
 40
0.000000
 40
1.000000
 40
1.000000
 40
1.000000
 40
1.000000
 10
314.000006
 20
192.500003
 30
0.000000
 10
314.261880
 20
192.499720
 30
0.000000
 10
314.523359
 20
192.569785
 30
0.000000
 10
314.750012
 20
192.700965
 30
0.000000
  0
SPLINE
  5
110
330
1F
100
AcDbEntity
  8
0
 62
     7
100
AcDbSpline
210
0.000000
220
0.000000
230
1.0
 70
     8
 71
     3
 72
     8
 73
     4
 42
0.0000000001
 43
0.0000000001
 44
0.0000000001
 12
0.000000
 22
0.000000
 32
0.000000
 13
0.000000
 23
0.000000
 33
0.000000
 40
0.000000
 40
0.000000
 40
0.000000
 40
0.000000
 40
1.000000
 40
1.000000
 40
1.000000
 40
1.000000
 10
314.750012
 20
192.700965
 30
0.000000
 10
314.976919
 20
192.831645
 30
0.000000
 10
315.168350
 20
193.023082
 30
0.000000
 10
315.299047
 20
193.250002
 30
0.000000
  0
SPLINE
  5
111
330
1F
100
AcDbEntity
  8
0
 62
     7
100
AcDbSpline
210
0.000000
220
0.000000
230
1.0
 70
     8
 71
     3
 72
     8
 73
     4
 42
0.0000000001
 43
0.0000000001
 44
0.0000000001
 12
0.000000
 22
0.000000
 32
0.000000
 13
0.000000
 23
0.000000
 33
0.000000
 40
0.000000
 40
0.000000
 40
0.000000
 40
0.000000
 40
1.000000
 40
1.000000
 40
1.000000
 40
1.000000
 10
315.299047
 20
193.250002
 30
0.000000
 10
315.430224
 20
193.476635
 30
0.000000
 10
315.500300
 20
193.738143
 30
0.000000
 10
315.500017
 20
194.000002
 30
0.000000
  0
SPLINE
  5
112
330
1F
100
AcDbEntity
  8
0
 62
     7
100
AcDbSpline
210
0.000000
220
0.000000
230
1.0
 70
     8
 71
     3
 72
     8
 73
     4
 42
0.0000000001
 43
0.0000000001
 44
0.0000000001
 12
0.000000
 22
0.000000
 32
0.000000
 13
0.000000
 23
0.000000
 33
0.000000
 40
0.000000
 40
0.000000
 40
0.000000
 40
0.000000
 40
1.000000
 40
1.000000
 40
1.000000
 40
1.000000
 10
316.500015
 20
165.000001
 30
0.000000
 10
316.500015
 20
165.261861
 30
0.000000
 10
316.430222
 20
165.523368
 30
0.000000
 10
316.299045
 20
165.750001
 30
0.000000
  0
SPLINE
  5
113
330
1F
100
AcDbEntity
  8
0
 62
     7
100
AcDbSpline
210
0.000000
220
0.000000
230
1.0
 70
     8
 71
     3
 72
     8
 73
     4
 42
0.0000000001
 43
0.0000000001
 44
0.0000000001
 12
0.000000
 22
0.000000
 32
0.000000
 13
0.000000
 23
0.000000
 33
0.000000
 40
0.000000
 40
0.000000
 40
0.000000
 40
0.000000
 40
1.000000
 40
1.000000
 40
1.000000
 40
1.000000
 10
316.299045
 20
165.750001
 30
0.000000
 10
316.168376
 20
165.976922
 30
0.000000
 10
315.976917
 20
166.168359
 30
0.000000
 10
315.750010
 20
166.299039
 30
0.000000
  0
SPLINE
  5
114
330
1F
100
AcDbEntity
  8
0
 62
     7
100
AcDbSpline
210
0.000000
220
0.000000
230
1.0
 70
     8
 71
     3
 72
     8
 73
     4
 42
0.0000000001
 43
0.0000000001
 44
0.0000000001
 12
0.000000
 22
0.000000
 32
0.000000
 13
0.000000
 23
0.000000
 33
0.000000
 40
0.000000
 40
0.000000
 40
0.000000
 40
0.000000
 40
1.000000
 40
1.000000
 40
1.000000
 40
1.000000
 10
315.750010
 20
166.299039
 30
0.000000
 10
315.523385
 20
166.430219
 30
0.000000
 10
315.261878
 20
166.500289
 30
0.000000
 10
315.000004
 20
166.500001
 30
0.000000
  0
SPLINE
  5
115
330
1F
100
AcDbEntity
  8
0
 62
     7
100
AcDbSpline
210
0.000000
220
0.000000
230
1.0
 70
     8
 71
     3
 72
     8
 73
     4
 42
0.0000000001
 43
0.0000000001
 44
0.0000000001
 12
0.000000
 22
0.000000
 32
0.000000
 13
0.000000
 23
0.000000
 33
0.000000
 40
0.000000
 40
0.000000
 40
0.000000
 40
0.000000
 40
1.000000
 40
1.000000
 40
1.000000
 40
1.000000
 10
315.000004
 20
166.500001
 30
0.000000
 10
314.738159
 20
166.500283
 30
0.000000
 10
314.476651
 20
166.430219
 30
0.000000
 10
314.249999
 20
166.299039
 30
0.000000
  0
SPLINE
  5
116
330
1F
100
AcDbEntity
  8
0
 62
     7
100
AcDbSpline
210
0.000000
220
0.000000
230
1.0
 70
     8
 71
     3
 72
     8
 73
     4
 42
0.0000000001
 43
0.0000000001
 44
0.0000000001
 12
0.000000
 22
0.000000
 32
0.000000
 13
0.000000
 23
0.000000
 33
0.000000
 40
0.000000
 40
0.000000
 40
0.000000
 40
0.000000
 40
1.000000
 40
1.000000
 40
1.000000
 40
1.000000
 10
314.249999
 20
166.299039
 30
0.000000
 10
314.023092
 20
166.168359
 30
0.000000
 10
313.831661
 20
165.976922
 30
0.000000
 10
313.700964
 20
165.750001
 30
0.000000
  0
SPLINE
  5
117
330
1F
100
AcDbEntity
  8
0
 62
     7
100
AcDbSpline
210
0.000000
220
0.000000
230
1.0
 70
     8
 71
     3
 72
     8
 73
     4
 42
0.0000000001
 43
0.0000000001
 44
0.0000000001
 12
0.000000
 22
0.000000
 32
0.000000
 13
0.000000
 23
0.000000
 33
0.000000
 40
0.000000
 40
0.000000
 40
0.000000
 40
0.000000
 40
1.000000
 40
1.000000
 40
1.000000
 40
1.000000
 10
313.700964
 20
165.750001
 30
0.000000
 10
313.569787
 20
165.523368
 30
0.000000
 10
313.499711
 20
165.261861
 30
0.000000
 10
313.499993
 20
165.000001
 30
0.000000
  0
SPLINE
  5
118
330
1F
100
AcDbEntity
  8
0
 62
     7
100
AcDbSpline
210
0.000000
220
0.000000
230
1.0
 70
     8
 71
     3
 72
     8
 73
     4
 42
0.0000000001
 43
0.0000000001
 44
0.0000000001
 12
0.000000
 22
0.000000
 32
0.000000
 13
0.000000
 23
0.000000
 33
0.000000
 40
0.000000
 40
0.000000
 40
0.000000
 40
0.000000
 40
1.000000
 40
1.000000
 40
1.000000
 40
1.000000
 10
313.499993
 20
165.000001
 30
0.000000
 10
313.499711
 20
164.738141
 30
0.000000
 10
313.569787
 20
164.476637
 30
0.000000
 10
313.700964
 20
164.250001
 30
0.000000
  0
SPLINE
  5
119
330
1F
100
AcDbEntity
  8
0
 62
     7
100
AcDbSpline
210
0.000000
220
0.000000
230
1.0
 70
     8
 71
     3
 72
     8
 73
     4
 42
0.0000000001
 43
0.0000000001
 44
0.0000000001
 12
0.000000
 22
0.000000
 32
0.000000
 13
0.000000
 23
0.000000
 33
0.000000
 40
0.000000
 40
0.000000
 40
0.000000
 40
0.000000
 40
1.000000
 40
1.000000
 40
1.000000
 40
1.000000
 10
313.700964
 20
164.250001
 30
0.000000
 10
313.831661
 20
164.023080
 30
0.000000
 10
314.023092
 20
163.831646
 30
0.000000
 10
314.249999
 20
163.700963
 30
0.000000
  0
SPLINE
  5
120
330
1F
100
AcDbEntity
  8
0
 62
     7
100
AcDbSpline
210
0.000000
220
0.000000
230
1.0
 70
     8
 71
     3
 72
     8
 73
     4
 42
0.0000000001
 43
0.0000000001
 44
0.0000000001
 12
0.000000
 22
0.000000
 32
0.000000
 13
0.000000
 23
0.000000
 33
0.000000
 40
0.000000
 40
0.000000
 40
0.000000
 40
0.000000
 40
1.000000
 40
1.000000
 40
1.000000
 40
1.000000
 10
314.249999
 20
163.700963
 30
0.000000
 10
314.476651
 20
163.569786
 30
0.000000
 10
314.738159
 20
163.499716
 30
0.000000
 10
315.000004
 20
163.500001
 30
0.000000
  0
SPLINE
  5
121
330
1F
100
AcDbEntity
  8
0
 62
     7
100
AcDbSpline
210
0.000000
220
0.000000
230
1.0
 70
     8
 71
     3
 72
     8
 73
     4
 42
0.0000000001
 43
0.0000000001
 44
0.0000000001
 12
0.000000
 22
0.000000
 32
0.000000
 13
0.000000
 23
0.000000
 33
0.000000
 40
0.000000
 40
0.000000
 40
0.000000
 40
0.000000
 40
1.000000
 40
1.000000
 40
1.000000
 40
1.000000
 10
315.000004
 20
163.500001
 30
0.000000
 10
315.261878
 20
163.499719
 30
0.000000
 10
315.523385
 20
163.569786
 30
0.000000
 10
315.750010
 20
163.700963
 30
0.000000
  0
SPLINE
  5
122
330
1F
100
AcDbEntity
  8
0
 62
     7
100
AcDbSpline
210
0.000000
220
0.000000
230
1.0
 70
     8
 71
     3
 72
     8
 73
     4
 42
0.0000000001
 43
0.0000000001
 44
0.0000000001
 12
0.000000
 22
0.000000
 32
0.000000
 13
0.000000
 23
0.000000
 33
0.000000
 40
0.000000
 40
0.000000
 40
0.000000
 40
0.000000
 40
1.000000
 40
1.000000
 40
1.000000
 40
1.000000
 10
315.750010
 20
163.700963
 30
0.000000
 10
315.976917
 20
163.831646
 30
0.000000
 10
316.168376
 20
164.023080
 30
0.000000
 10
316.299045
 20
164.250001
 30
0.000000
  0
SPLINE
  5
123
330
1F
100
AcDbEntity
  8
0
 62
     7
100
AcDbSpline
210
0.000000
220
0.000000
230
1.0
 70
     8
 71
     3
 72
     8
 73
     4
 42
0.0000000001
 43
0.0000000001
 44
0.0000000001
 12
0.000000
 22
0.000000
 32
0.000000
 13
0.000000
 23
0.000000
 33
0.000000
 40
0.000000
 40
0.000000
 40
0.000000
 40
0.000000
 40
1.000000
 40
1.000000
 40
1.000000
 40
1.000000
 10
316.299045
 20
164.250001
 30
0.000000
 10
316.430222
 20
164.476637
 30
0.000000
 10
316.500298
 20
164.738141
 30
0.000000
 10
316.500015
 20
165.000001
 30
0.000000
  0
SPLINE
  5
124
330
1F
100
AcDbEntity
  8
0
 62
     7
100
AcDbSpline
210
0.000000
220
0.000000
230
1.0
 70
     8
 71
     3
 72
     8
 73
     4
 42
0.0000000001
 43
0.0000000001
 44
0.0000000001
 12
0.000000
 22
0.000000
 32
0.000000
 13
0.000000
 23
0.000000
 33
0.000000
 40
0.000000
 40
0.000000
 40
0.000000
 40
0.000000
 40
1.000000
 40
1.000000
 40
1.000000
 40
1.000000
 10
316.500015
 20
235.000002
 30
0.000000
 10
316.500015
 20
235.261862
 30
0.000000
 10
316.430222
 20
235.523366
 30
0.000000
 10
316.299045
 20
235.750002
 30
0.000000
  0
SPLINE
  5
125
330
1F
100
AcDbEntity
  8
0
 62
     7
100
AcDbSpline
210
0.000000
220
0.000000
230
1.0
 70
     8
 71
     3
 72
     8
 73
     4
 42
0.0000000001
 43
0.0000000001
 44
0.0000000001
 12
0.000000
 22
0.000000
 32
0.000000
 13
0.000000
 23
0.000000
 33
0.000000
 40
0.000000
 40
0.000000
 40
0.000000
 40
0.000000
 40
1.000000
 40
1.000000
 40
1.000000
 40
1.000000
 10
316.299045
 20
235.750002
 30
0.000000
 10
316.168376
 20
235.976923
 30
0.000000
 10
315.976917
 20
236.168357
 30
0.000000
 10
315.750010
 20
236.299040
 30
0.000000
  0
SPLINE
  5
126
330
1F
100
AcDbEntity
  8
0
 62
     7
100
AcDbSpline
210
0.000000
220
0.000000
230
1.0
 70
     8
 71
     3
 72
     8
 73
     4
 42
0.0000000001
 43
0.0000000001
 44
0.0000000001
 12
0.000000
 22
0.000000
 32
0.000000
 13
0.000000
 23
0.000000
 33
0.000000
 40
0.000000
 40
0.000000
 40
0.000000
 40
0.000000
 40
1.000000
 40
1.000000
 40
1.000000
 40
1.000000
 10
315.750010
 20
236.299040
 30
0.000000
 10
315.523385
 20
236.430217
 30
0.000000
 10
315.261878
 20
236.500287
 30
0.000000
 10
315.000004
 20
236.500002
 30
0.000000
  0
SPLINE
  5
127
330
1F
100
AcDbEntity
  8
0
 62
     7
100
AcDbSpline
210
0.000000
220
0.000000
230
1.0
 70
     8
 71
     3
 72
     8
 73
     4
 42
0.0000000001
 43
0.0000000001
 44
0.0000000001
 12
0.000000
 22
0.000000
 32
0.000000
 13
0.000000
 23
0.000000
 33
0.000000
 40
0.000000
 40
0.000000
 40
0.000000
 40
0.000000
 40
1.000000
 40
1.000000
 40
1.000000
 40
1.000000
 10
315.000004
 20
236.500002
 30
0.000000
 10
314.738159
 20
236.500284
 30
0.000000
 10
314.476651
 20
236.430217
 30
0.000000
 10
314.249999
 20
236.299040
 30
0.000000
  0
SPLINE
  5
128
330
1F
100
AcDbEntity
  8
0
 62
     7
100
AcDbSpline
210
0.000000
220
0.000000
230
1.0
 70
     8
 71
     3
 72
     8
 73
     4
 42
0.0000000001
 43
0.0000000001
 44
0.0000000001
 12
0.000000
 22
0.000000
 32
0.000000
 13
0.000000
 23
0.000000
 33
0.000000
 40
0.000000
 40
0.000000
 40
0.000000
 40
0.000000
 40
1.000000
 40
1.000000
 40
1.000000
 40
1.000000
 10
314.249999
 20
236.299040
 30
0.000000
 10
314.023092
 20
236.168357
 30
0.000000
 10
313.831661
 20
235.976923
 30
0.000000
 10
313.700964
 20
235.750002
 30
0.000000
  0
SPLINE
  5
129
330
1F
100
AcDbEntity
  8
0
 62
     7
100
AcDbSpline
210
0.000000
220
0.000000
230
1.0
 70
     8
 71
     3
 72
     8
 73
     4
 42
0.0000000001
 43
0.0000000001
 44
0.0000000001
 12
0.000000
 22
0.000000
 32
0.000000
 13
0.000000
 23
0.000000
 33
0.000000
 40
0.000000
 40
0.000000
 40
0.000000
 40
0.000000
 40
1.000000
 40
1.000000
 40
1.000000
 40
1.000000
 10
313.700964
 20
235.750002
 30
0.000000
 10
313.569787
 20
235.523366
 30
0.000000
 10
313.499711
 20
235.261862
 30
0.000000
 10
313.499993
 20
235.000002
 30
0.000000
  0
SPLINE
  5
130
330
1F
100
AcDbEntity
  8
0
 62
     7
100
AcDbSpline
210
0.000000
220
0.000000
230
1.0
 70
     8
 71
     3
 72
     8
 73
     4
 42
0.0000000001
 43
0.0000000001
 44
0.0000000001
 12
0.000000
 22
0.000000
 32
0.000000
 13
0.000000
 23
0.000000
 33
0.000000
 40
0.000000
 40
0.000000
 40
0.000000
 40
0.000000
 40
1.000000
 40
1.000000
 40
1.000000
 40
1.000000
 10
313.499993
 20
235.000002
 30
0.000000
 10
313.499711
 20
234.738142
 30
0.000000
 10
313.569787
 20
234.476638
 30
0.000000
 10
313.700964
 20
234.250002
 30
0.000000
  0
SPLINE
  5
131
330
1F
100
AcDbEntity
  8
0
 62
     7
100
AcDbSpline
210
0.000000
220
0.000000
230
1.0
 70
     8
 71
     3
 72
     8
 73
     4
 42
0.0000000001
 43
0.0000000001
 44
0.0000000001
 12
0.000000
 22
0.000000
 32
0.000000
 13
0.000000
 23
0.000000
 33
0.000000
 40
0.000000
 40
0.000000
 40
0.000000
 40
0.000000
 40
1.000000
 40
1.000000
 40
1.000000
 40
1.000000
 10
313.700964
 20
234.250002
 30
0.000000
 10
313.831661
 20
234.023082
 30
0.000000
 10
314.023092
 20
233.831645
 30
0.000000
 10
314.249999
 20
233.700964
 30
0.000000
  0
SPLINE
  5
132
330
1F
100
AcDbEntity
  8
0
 62
     7
100
AcDbSpline
210
0.000000
220
0.000000
230
1.0
 70
     8
 71
     3
 72
     8
 73
     4
 42
0.0000000001
 43
0.0000000001
 44
0.0000000001
 12
0.000000
 22
0.000000
 32
0.000000
 13
0.000000
 23
0.000000
 33
0.000000
 40
0.000000
 40
0.000000
 40
0.000000
 40
0.000000
 40
1.000000
 40
1.000000
 40
1.000000
 40
1.000000
 10
314.249999
 20
233.700964
 30
0.000000
 10
314.476651
 20
233.569785
 30
0.000000
 10
314.738159
 20
233.499715
 30
0.000000
 10
315.000004
 20
233.500002
 30
0.000000
  0
SPLINE
  5
133
330
1F
100
AcDbEntity
  8
0
 62
     7
100
AcDbSpline
210
0.000000
220
0.000000
230
1.0
 70
     8
 71
     3
 72
     8
 73
     4
 42
0.0000000001
 43
0.0000000001
 44
0.0000000001
 12
0.000000
 22
0.000000
 32
0.000000
 13
0.000000
 23
0.000000
 33
0.000000
 40
0.000000
 40
0.000000
 40
0.000000
 40
0.000000
 40
1.000000
 40
1.000000
 40
1.000000
 40
1.000000
 10
315.000004
 20
233.500002
 30
0.000000
 10
315.261878
 20
233.499720
 30
0.000000
 10
315.523385
 20
233.569785
 30
0.000000
 10
315.750010
 20
233.700964
 30
0.000000
  0
SPLINE
  5
134
330
1F
100
AcDbEntity
  8
0
 62
     7
100
AcDbSpline
210
0.000000
220
0.000000
230
1.0
 70
     8
 71
     3
 72
     8
 73
     4
 42
0.0000000001
 43
0.0000000001
 44
0.0000000001
 12
0.000000
 22
0.000000
 32
0.000000
 13
0.000000
 23
0.000000
 33
0.000000
 40
0.000000
 40
0.000000
 40
0.000000
 40
0.000000
 40
1.000000
 40
1.000000
 40
1.000000
 40
1.000000
 10
315.750010
 20
233.700964
 30
0.000000
 10
315.976917
 20
233.831645
 30
0.000000
 10
316.168376
 20
234.023082
 30
0.000000
 10
316.299045
 20
234.250002
 30
0.000000
  0
SPLINE
  5
135
330
1F
100
AcDbEntity
  8
0
 62
     7
100
AcDbSpline
210
0.000000
220
0.000000
230
1.0
 70
     8
 71
     3
 72
     8
 73
     4
 42
0.0000000001
 43
0.0000000001
 44
0.0000000001
 12
0.000000
 22
0.000000
 32
0.000000
 13
0.000000
 23
0.000000
 33
0.000000
 40
0.000000
 40
0.000000
 40
0.000000
 40
0.000000
 40
1.000000
 40
1.000000
 40
1.000000
 40
1.000000
 10
316.299045
 20
234.250002
 30
0.000000
 10
316.430222
 20
234.476638
 30
0.000000
 10
316.500298
 20
234.738142
 30
0.000000
 10
316.500015
 20
235.000002
 30
0.000000
  0
LINE
  5
136
330
1F
100
AcDbEntity
  8
0
  62
7
100
AcDbLine
 10
350.000019
 20
252.000002
 30
0.000000
 11
350.000019
 21
255.100002
 31
0.000000
  0
LINE
  5
137
330
1F
100
AcDbEntity
  8
0
  62
7
100
AcDbLine
 10
350.000019
 20
255.100002
 30
0.000000
 11
355.000009
 21
255.100002
 31
0.000000
  0
LINE
  5
138
330
1F
100
AcDbEntity
  8
0
  62
7
100
AcDbLine
 10
355.000009
 20
255.100002
 30
0.000000
 11
355.000009
 21
252.000002
 31
0.000000
  0
LINE
  5
139
330
1F
100
AcDbEntity
  8
0
  62
7
100
AcDbLine
 10
355.000009
 20
252.000002
 30
0.000000
 11
350.000019
 21
252.000002
 31
0.000000
  0
LINE
  5
140
330
1F
100
AcDbEntity
  8
0
  62
7
100
AcDbLine
 10
335.000021
 20
252.000002
 30
0.000000
 11
335.000021
 21
255.100002
 31
0.000000
  0
LINE
  5
141
330
1F
100
AcDbEntity
  8
0
  62
7
100
AcDbLine
 10
335.000021
 20
255.100002
 30
0.000000
 11
340.000011
 21
255.100002
 31
0.000000
  0
LINE
  5
142
330
1F
100
AcDbEntity
  8
0
  62
7
100
AcDbLine
 10
340.000011
 20
255.100002
 30
0.000000
 11
340.000011
 21
252.000002
 31
0.000000
  0
LINE
  5
143
330
1F
100
AcDbEntity
  8
0
  62
7
100
AcDbLine
 10
340.000011
 20
252.000002
 30
0.000000
 11
335.000021
 21
252.000002
 31
0.000000
  0
LINE
  5
144
330
1F
100
AcDbEntity
  8
0
  62
7
100
AcDbLine
 10
304.999996
 20
252.000002
 30
0.000000
 11
304.999996
 21
255.100002
 31
0.000000
  0
LINE
  5
145
330
1F
100
AcDbEntity
  8
0
  62
7
100
AcDbLine
 10
304.999996
 20
255.100002
 30
0.000000
 11
310.000014
 21
255.100002
 31
0.000000
  0
LINE
  5
146
330
1F
100
AcDbEntity
  8
0
  62
7
100
AcDbLine
 10
310.000014
 20
255.100002
 30
0.000000
 11
310.000014
 21
252.000002
 31
0.000000
  0
LINE
  5
147
330
1F
100
AcDbEntity
  8
0
  62
7
100
AcDbLine
 10
310.000014
 20
252.000002
 30
0.000000
 11
304.999996
 21
252.000002
 31
0.000000
  0
LINE
  5
148
330
1F
100
AcDbEntity
  8
0
  62
7
100
AcDbLine
 10
325.000013
 20
252.000002
 30
0.000000
 11
319.999994
 21
252.000002
 31
0.000000
  0
LINE
  5
149
330
1F
100
AcDbEntity
  8
0
  62
7
100
AcDbLine
 10
319.999994
 20
252.000002
 30
0.000000
 11
319.999994
 21
255.100002
 31
0.000000
  0
LINE
  5
150
330
1F
100
AcDbEntity
  8
0
  62
7
100
AcDbLine
 10
319.999994
 20
255.100002
 30
0.000000
 11
325.000013
 21
255.100002
 31
0.000000
  0
LINE
  5
151
330
1F
100
AcDbEntity
  8
0
  62
7
100
AcDbLine
 10
325.000013
 20
255.100002
 30
0.000000
 11
325.000013
 21
252.000002
 31
0.000000
  0
SPLINE
  5
152
330
1F
100
AcDbEntity
  8
0
 62
     7
100
AcDbSpline
210
0.000000
220
0.000000
230
1.0
 70
     8
 71
     3
 72
     8
 73
     4
 42
0.0000000001
 43
0.0000000001
 44
0.0000000001
 12
0.000000
 22
0.000000
 32
0.000000
 13
0.000000
 23
0.000000
 33
0.000000
 40
0.000000
 40
0.000000
 40
0.000000
 40
0.000000
 40
1.000000
 40
1.000000
 40
1.000000
 40
1.000000
 10
315.500017
 20
246.000002
 30
0.000000
 10
315.500300
 20
246.261862
 30
0.000000
 10
315.430224
 20
246.523367
 30
0.000000
 10
315.299047
 20
246.750002
 30
0.000000
  0
SPLINE
  5
153
330
1F
100
AcDbEntity
  8
0
 62
     7
100
AcDbSpline
210
0.000000
220
0.000000
230
1.0
 70
     8
 71
     3
 72
     8
 73
     4
 42
0.0000000001
 43
0.0000000001
 44
0.0000000001
 12
0.000000
 22
0.000000
 32
0.000000
 13
0.000000
 23
0.000000
 33
0.000000
 40
0.000000
 40
0.000000
 40
0.000000
 40
0.000000
 40
1.000000
 40
1.000000
 40
1.000000
 40
1.000000
 10
315.299047
 20
246.750002
 30
0.000000
 10
315.168350
 20
246.976923
 30
0.000000
 10
314.976919
 20
247.168358
 30
0.000000
 10
314.750012
 20
247.299040
 30
0.000000
  0
SPLINE
  5
154
330
1F
100
AcDbEntity
  8
0
 62
     7
100
AcDbSpline
210
0.000000
220
0.000000
230
1.0
 70
     8
 71
     3
 72
     8
 73
     4
 42
0.0000000001
 43
0.0000000001
 44
0.0000000001
 12
0.000000
 22
0.000000
 32
0.000000
 13
0.000000
 23
0.000000
 33
0.000000
 40
0.000000
 40
0.000000
 40
0.000000
 40
0.000000
 40
1.000000
 40
1.000000
 40
1.000000
 40
1.000000
 10
314.750012
 20
247.299040
 30
0.000000
 10
314.523359
 20
247.430218
 30
0.000000
 10
314.261880
 20
247.500288
 30
0.000000
 10
314.000006
 20
247.500002
 30
0.000000
  0
SPLINE
  5
155
330
1F
100
AcDbEntity
  8
0
 62
     7
100
AcDbSpline
210
0.000000
220
0.000000
230
1.0
 70
     8
 71
     3
 72
     8
 73
     4
 42
0.0000000001
 43
0.0000000001
 44
0.0000000001
 12
0.000000
 22
0.000000
 32
0.000000
 13
0.000000
 23
0.000000
 33
0.000000
 40
0.000000
 40
0.000000
 40
0.000000
 40
0.000000
 40
1.000000
 40
1.000000
 40
1.000000
 40
1.000000
 10
314.000006
 20
247.500002
 30
0.000000
 10
313.738161
 20
247.500284
 30
0.000000
 10
313.476653
 20
247.430218
 30
0.000000
 10
313.250001
 20
247.299040
 30
0.000000
  0
SPLINE
  5
156
330
1F
100
AcDbEntity
  8
0
 62
     7
100
AcDbSpline
210
0.000000
220
0.000000
230
1.0
 70
     8
 71
     3
 72
     8
 73
     4
 42
0.0000000001
 43
0.0000000001
 44
0.0000000001
 12
0.000000
 22
0.000000
 32
0.000000
 13
0.000000
 23
0.000000
 33
0.000000
 40
0.000000
 40
0.000000
 40
0.000000
 40
0.000000
 40
1.000000
 40
1.000000
 40
1.000000
 40
1.000000
 10
313.250001
 20
247.299040
 30
0.000000
 10
313.023094
 20
247.168358
 30
0.000000
 10
312.831663
 20
246.976923
 30
0.000000
 10
312.700966
 20
246.750002
 30
0.000000
  0
SPLINE
  5
157
330
1F
100
AcDbEntity
  8
0
 62
     7
100
AcDbSpline
210
0.000000
220
0.000000
230
1.0
 70
     8
 71
     3
 72
     8
 73
     4
 42
0.0000000001
 43
0.0000000001
 44
0.0000000001
 12
0.000000
 22
0.000000
 32
0.000000
 13
0.000000
 23
0.000000
 33
0.000000
 40
0.000000
 40
0.000000
 40
0.000000
 40
0.000000
 40
1.000000
 40
1.000000
 40
1.000000
 40
1.000000
 10
312.700966
 20
246.750002
 30
0.000000
 10
312.569789
 20
246.523367
 30
0.000000
 10
312.499713
 20
246.261862
 30
0.000000
 10
312.499995
 20
246.000002
 30
0.000000
  0
SPLINE
  5
158
330
1F
100
AcDbEntity
  8
0
 62
     7
100
AcDbSpline
210
0.000000
220
0.000000
230
1.0
 70
     8
 71
     3
 72
     8
 73
     4
 42
0.0000000001
 43
0.0000000001
 44
0.0000000001
 12
0.000000
 22
0.000000
 32
0.000000
 13
0.000000
 23
0.000000
 33
0.000000
 40
0.000000
 40
0.000000
 40
0.000000
 40
0.000000
 40
1.000000
 40
1.000000
 40
1.000000
 40
1.000000
 10
312.499995
 20
246.000002
 30
0.000000
 10
312.499713
 20
245.738142
 30
0.000000
 10
312.569789
 20
245.476637
 30
0.000000
 10
312.700966
 20
245.250001
 30
0.000000
  0
SPLINE
  5
159
330
1F
100
AcDbEntity
  8
0
 62
     7
100
AcDbSpline
210
0.000000
220
0.000000
230
1.0
 70
     8
 71
     3
 72
     8
 73
     4
 42
0.0000000001
 43
0.0000000001
 44
0.0000000001
 12
0.000000
 22
0.000000
 32
0.000000
 13
0.000000
 23
0.000000
 33
0.000000
 40
0.000000
 40
0.000000
 40
0.000000
 40
0.000000
 40
1.000000
 40
1.000000
 40
1.000000
 40
1.000000
 10
312.700966
 20
245.250001
 30
0.000000
 10
312.831663
 20
245.023081
 30
0.000000
 10
313.023094
 20
244.831646
 30
0.000000
 10
313.250001
 20
244.700964
 30
0.000000
  0
SPLINE
  5
160
330
1F
100
AcDbEntity
  8
0
 62
     7
100
AcDbSpline
210
0.000000
220
0.000000
230
1.0
 70
     8
 71
     3
 72
     8
 73
     4
 42
0.0000000001
 43
0.0000000001
 44
0.0000000001
 12
0.000000
 22
0.000000
 32
0.000000
 13
0.000000
 23
0.000000
 33
0.000000
 40
0.000000
 40
0.000000
 40
0.000000
 40
0.000000
 40
1.000000
 40
1.000000
 40
1.000000
 40
1.000000
 10
313.250001
 20
244.700964
 30
0.000000
 10
313.476653
 20
244.569786
 30
0.000000
 10
313.738161
 20
244.499716
 30
0.000000
 10
314.000006
 20
244.500002
 30
0.000000
  0
SPLINE
  5
161
330
1F
100
AcDbEntity
  8
0
 62
     7
100
AcDbSpline
210
0.000000
220
0.000000
230
1.0
 70
     8
 71
     3
 72
     8
 73
     4
 42
0.0000000001
 43
0.0000000001
 44
0.0000000001
 12
0.000000
 22
0.000000
 32
0.000000
 13
0.000000
 23
0.000000
 33
0.000000
 40
0.000000
 40
0.000000
 40
0.000000
 40
0.000000
 40
1.000000
 40
1.000000
 40
1.000000
 40
1.000000
 10
314.000006
 20
244.500002
 30
0.000000
 10
314.261880
 20
244.499719
 30
0.000000
 10
314.523359
 20
244.569786
 30
0.000000
 10
314.750012
 20
244.700964
 30
0.000000
  0
SPLINE
  5
162
330
1F
100
AcDbEntity
  8
0
 62
     7
100
AcDbSpline
210
0.000000
220
0.000000
230
1.0
 70
     8
 71
     3
 72
     8
 73
     4
 42
0.0000000001
 43
0.0000000001
 44
0.0000000001
 12
0.000000
 22
0.000000
 32
0.000000
 13
0.000000
 23
0.000000
 33
0.000000
 40
0.000000
 40
0.000000
 40
0.000000
 40
0.000000
 40
1.000000
 40
1.000000
 40
1.000000
 40
1.000000
 10
314.750012
 20
244.700964
 30
0.000000
 10
314.976919
 20
244.831646
 30
0.000000
 10
315.168350
 20
245.023081
 30
0.000000
 10
315.299047
 20
245.250001
 30
0.000000
  0
SPLINE
  5
163
330
1F
100
AcDbEntity
  8
0
 62
     7
100
AcDbSpline
210
0.000000
220
0.000000
230
1.0
 70
     8
 71
     3
 72
     8
 73
     4
 42
0.0000000001
 43
0.0000000001
 44
0.0000000001
 12
0.000000
 22
0.000000
 32
0.000000
 13
0.000000
 23
0.000000
 33
0.000000
 40
0.000000
 40
0.000000
 40
0.000000
 40
0.000000
 40
1.000000
 40
1.000000
 40
1.000000
 40
1.000000
 10
315.299047
 20
245.250001
 30
0.000000
 10
315.430224
 20
245.476637
 30
0.000000
 10
315.500300
 20
245.738142
 30
0.000000
 10
315.500017
 20
246.000002
 30
0.000000
  0
SPLINE
  5
164
330
1F
100
AcDbEntity
  8
0
 62
     7
100
AcDbSpline
210
0.000000
220
0.000000
230
1.0
 70
     8
 71
     3
 72
     8
 73
     4
 42
0.0000000001
 43
0.0000000001
 44
0.0000000001
 12
0.000000
 22
0.000000
 32
0.000000
 13
0.000000
 23
0.000000
 33
0.000000
 40
0.000000
 40
0.000000
 40
0.000000
 40
0.000000
 40
1.000000
 40
1.000000
 40
1.000000
 40
1.000000
 10
315.500017
 20
154.000001
 30
0.000000
 10
315.500300
 20
154.261860
 30
0.000000
 10
315.430224
 20
154.523368
 30
0.000000
 10
315.299047
 20
154.750000
 30
0.000000
  0
SPLINE
  5
165
330
1F
100
AcDbEntity
  8
0
 62
     7
100
AcDbSpline
210
0.000000
220
0.000000
230
1.0
 70
     8
 71
     3
 72
     8
 73
     4
 42
0.0000000001
 43
0.0000000001
 44
0.0000000001
 12
0.000000
 22
0.000000
 32
0.000000
 13
0.000000
 23
0.000000
 33
0.000000
 40
0.000000
 40
0.000000
 40
0.000000
 40
0.000000
 40
1.000000
 40
1.000000
 40
1.000000
 40
1.000000
 10
315.299047
 20
154.750000
 30
0.000000
 10
315.168350
 20
154.976924
 30
0.000000
 10
314.976919
 20
155.168358
 30
0.000000
 10
314.750012
 20
155.299038
 30
0.000000
  0
SPLINE
  5
166
330
1F
100
AcDbEntity
  8
0
 62
     7
100
AcDbSpline
210
0.000000
220
0.000000
230
1.0
 70
     8
 71
     3
 72
     8
 73
     4
 42
0.0000000001
 43
0.0000000001
 44
0.0000000001
 12
0.000000
 22
0.000000
 32
0.000000
 13
0.000000
 23
0.000000
 33
0.000000
 40
0.000000
 40
0.000000
 40
0.000000
 40
0.000000
 40
1.000000
 40
1.000000
 40
1.000000
 40
1.000000
 10
314.750012
 20
155.299038
 30
0.000000
 10
314.523359
 20
155.430218
 30
0.000000
 10
314.261880
 20
155.500288
 30
0.000000
 10
314.000006
 20
155.500000
 30
0.000000
  0
SPLINE
  5
167
330
1F
100
AcDbEntity
  8
0
 62
     7
100
AcDbSpline
210
0.000000
220
0.000000
230
1.0
 70
     8
 71
     3
 72
     8
 73
     4
 42
0.0000000001
 43
0.0000000001
 44
0.0000000001
 12
0.000000
 22
0.000000
 32
0.000000
 13
0.000000
 23
0.000000
 33
0.000000
 40
0.000000
 40
0.000000
 40
0.000000
 40
0.000000
 40
1.000000
 40
1.000000
 40
1.000000
 40
1.000000
 10
314.000006
 20
155.500000
 30
0.000000
 10
313.738161
 20
155.500283
 30
0.000000
 10
313.476653
 20
155.430218
 30
0.000000
 10
313.250001
 20
155.299038
 30
0.000000
  0
SPLINE
  5
168
330
1F
100
AcDbEntity
  8
0
 62
     7
100
AcDbSpline
210
0.000000
220
0.000000
230
1.0
 70
     8
 71
     3
 72
     8
 73
     4
 42
0.0000000001
 43
0.0000000001
 44
0.0000000001
 12
0.000000
 22
0.000000
 32
0.000000
 13
0.000000
 23
0.000000
 33
0.000000
 40
0.000000
 40
0.000000
 40
0.000000
 40
0.000000
 40
1.000000
 40
1.000000
 40
1.000000
 40
1.000000
 10
313.250001
 20
155.299038
 30
0.000000
 10
313.023094
 20
155.168358
 30
0.000000
 10
312.831663
 20
154.976924
 30
0.000000
 10
312.700966
 20
154.750000
 30
0.000000
  0
SPLINE
  5
169
330
1F
100
AcDbEntity
  8
0
 62
     7
100
AcDbSpline
210
0.000000
220
0.000000
230
1.0
 70
     8
 71
     3
 72
     8
 73
     4
 42
0.0000000001
 43
0.0000000001
 44
0.0000000001
 12
0.000000
 22
0.000000
 32
0.000000
 13
0.000000
 23
0.000000
 33
0.000000
 40
0.000000
 40
0.000000
 40
0.000000
 40
0.000000
 40
1.000000
 40
1.000000
 40
1.000000
 40
1.000000
 10
312.700966
 20
154.750000
 30
0.000000
 10
312.569789
 20
154.523368
 30
0.000000
 10
312.499713
 20
154.261860
 30
0.000000
 10
312.499995
 20
154.000001
 30
0.000000
  0
SPLINE
  5
170
330
1F
100
AcDbEntity
  8
0
 62
     7
100
AcDbSpline
210
0.000000
220
0.000000
230
1.0
 70
     8
 71
     3
 72
     8
 73
     4
 42
0.0000000001
 43
0.0000000001
 44
0.0000000001
 12
0.000000
 22
0.000000
 32
0.000000
 13
0.000000
 23
0.000000
 33
0.000000
 40
0.000000
 40
0.000000
 40
0.000000
 40
0.000000
 40
1.000000
 40
1.000000
 40
1.000000
 40
1.000000
 10
312.499995
 20
154.000001
 30
0.000000
 10
312.499713
 20
153.738141
 30
0.000000
 10
312.569789
 20
153.476636
 30
0.000000
 10
312.700966
 20
153.250001
 30
0.000000
  0
SPLINE
  5
171
330
1F
100
AcDbEntity
  8
0
 62
     7
100
AcDbSpline
210
0.000000
220
0.000000
230
1.0
 70
     8
 71
     3
 72
     8
 73
     4
 42
0.0000000001
 43
0.0000000001
 44
0.0000000001
 12
0.000000
 22
0.000000
 32
0.000000
 13
0.000000
 23
0.000000
 33
0.000000
 40
0.000000
 40
0.000000
 40
0.000000
 40
0.000000
 40
1.000000
 40
1.000000
 40
1.000000
 40
1.000000
 10
312.700966
 20
153.250001
 30
0.000000
 10
312.831663
 20
153.023080
 30
0.000000
 10
313.023094
 20
152.831646
 30
0.000000
 10
313.250001
 20
152.700963
 30
0.000000
  0
SPLINE
  5
172
330
1F
100
AcDbEntity
  8
0
 62
     7
100
AcDbSpline
210
0.000000
220
0.000000
230
1.0
 70
     8
 71
     3
 72
     8
 73
     4
 42
0.0000000001
 43
0.0000000001
 44
0.0000000001
 12
0.000000
 22
0.000000
 32
0.000000
 13
0.000000
 23
0.000000
 33
0.000000
 40
0.000000
 40
0.000000
 40
0.000000
 40
0.000000
 40
1.000000
 40
1.000000
 40
1.000000
 40
1.000000
 10
313.250001
 20
152.700963
 30
0.000000
 10
313.476653
 20
152.569786
 30
0.000000
 10
313.738161
 20
152.499716
 30
0.000000
 10
314.000006
 20
152.500001
 30
0.000000
  0
SPLINE
  5
173
330
1F
100
AcDbEntity
  8
0
 62
     7
100
AcDbSpline
210
0.000000
220
0.000000
230
1.0
 70
     8
 71
     3
 72
     8
 73
     4
 42
0.0000000001
 43
0.0000000001
 44
0.0000000001
 12
0.000000
 22
0.000000
 32
0.000000
 13
0.000000
 23
0.000000
 33
0.000000
 40
0.000000
 40
0.000000
 40
0.000000
 40
0.000000
 40
1.000000
 40
1.000000
 40
1.000000
 40
1.000000
 10
314.000006
 20
152.500001
 30
0.000000
 10
314.261880
 20
152.499719
 30
0.000000
 10
314.523359
 20
152.569786
 30
0.000000
 10
314.750012
 20
152.700963
 30
0.000000
  0
SPLINE
  5
174
330
1F
100
AcDbEntity
  8
0
 62
     7
100
AcDbSpline
210
0.000000
220
0.000000
230
1.0
 70
     8
 71
     3
 72
     8
 73
     4
 42
0.0000000001
 43
0.0000000001
 44
0.0000000001
 12
0.000000
 22
0.000000
 32
0.000000
 13
0.000000
 23
0.000000
 33
0.000000
 40
0.000000
 40
0.000000
 40
0.000000
 40
0.000000
 40
1.000000
 40
1.000000
 40
1.000000
 40
1.000000
 10
314.750012
 20
152.700963
 30
0.000000
 10
314.976919
 20
152.831646
 30
0.000000
 10
315.168350
 20
153.023080
 30
0.000000
 10
315.299047
 20
153.250001
 30
0.000000
  0
SPLINE
  5
175
330
1F
100
AcDbEntity
  8
0
 62
     7
100
AcDbSpline
210
0.000000
220
0.000000
230
1.0
 70
     8
 71
     3
 72
     8
 73
     4
 42
0.0000000001
 43
0.0000000001
 44
0.0000000001
 12
0.000000
 22
0.000000
 32
0.000000
 13
0.000000
 23
0.000000
 33
0.000000
 40
0.000000
 40
0.000000
 40
0.000000
 40
0.000000
 40
1.000000
 40
1.000000
 40
1.000000
 40
1.000000
 10
315.299047
 20
153.250001
 30
0.000000
 10
315.430224
 20
153.476636
 30
0.000000
 10
315.500300
 20
153.738141
 30
0.000000
 10
315.500017
 20
154.000001
 30
0.000000
  0
SPLINE
  5
176
330
1F
100
AcDbEntity
  8
0
 62
     7
100
AcDbSpline
210
0.000000
220
0.000000
230
1.0
 70
     8
 71
     3
 72
     8
 73
     4
 42
0.0000000001
 43
0.0000000001
 44
0.0000000001
 12
0.000000
 22
0.000000
 32
0.000000
 13
0.000000
 23
0.000000
 33
0.000000
 40
0.000000
 40
0.000000
 40
0.000000
 40
0.000000
 40
1.000000
 40
1.000000
 40
1.000000
 40
1.000000
 10
367.499998
 20
246.000002
 30
0.000000
 10
367.500280
 20
246.261862
 30
0.000000
 10
367.430233
 20
246.523367
 30
0.000000
 10
367.299056
 20
246.750002
 30
0.000000
  0
SPLINE
  5
177
330
1F
100
AcDbEntity
  8
0
 62
     7
100
AcDbSpline
210
0.000000
220
0.000000
230
1.0
 70
     8
 71
     3
 72
     8
 73
     4
 42
0.0000000001
 43
0.0000000001
 44
0.0000000001
 12
0.000000
 22
0.000000
 32
0.000000
 13
0.000000
 23
0.000000
 33
0.000000
 40
0.000000
 40
0.000000
 40
0.000000
 40
0.000000
 40
1.000000
 40
1.000000
 40
1.000000
 40
1.000000
 10
367.299056
 20
246.750002
 30
0.000000
 10
367.168359
 20
246.976923
 30
0.000000
 10
366.976927
 20
247.168358
 30
0.000000
 10
366.750021
 20
247.299040
 30
0.000000
  0
SPLINE
  5
178
330
1F
100
AcDbEntity
  8
0
 62
     7
100
AcDbSpline
210
0.000000
220
0.000000
230
1.0
 70
     8
 71
     3
 72
     8
 73
     4
 42
0.0000000001
 43
0.0000000001
 44
0.0000000001
 12
0.000000
 22
0.000000
 32
0.000000
 13
0.000000
 23
0.000000
 33
0.000000
 40
0.000000
 40
0.000000
 40
0.000000
 40
0.000000
 40
1.000000
 40
1.000000
 40
1.000000
 40
1.000000
 10
366.750021
 20
247.299040
 30
0.000000
 10
366.523368
 20
247.430218
 30
0.000000
 10
366.261861
 20
247.500288
 30
0.000000
 10
366.000015
 20
247.500002
 30
0.000000
  0
SPLINE
  5
179
330
1F
100
AcDbEntity
  8
0
 62
     7
100
AcDbSpline
210
0.000000
220
0.000000
230
1.0
 70
     8
 71
     3
 72
     8
 73
     4
 42
0.0000000001
 43
0.0000000001
 44
0.0000000001
 12
0.000000
 22
0.000000
 32
0.000000
 13
0.000000
 23
0.000000
 33
0.000000
 40
0.000000
 40
0.000000
 40
0.000000
 40
0.000000
 40
1.000000
 40
1.000000
 40
1.000000
 40
1.000000
 10
366.000015
 20
247.500002
 30
0.000000
 10
365.738141
 20
247.500284
 30
0.000000
 10
365.476634
 20
247.430218
 30
0.000000
 10
365.250010
 20
247.299040
 30
0.000000
  0
SPLINE
  5
180
330
1F
100
AcDbEntity
  8
0
 62
     7
100
AcDbSpline
210
0.000000
220
0.000000
230
1.0
 70
     8
 71
     3
 72
     8
 73
     4
 42
0.0000000001
 43
0.0000000001
 44
0.0000000001
 12
0.000000
 22
0.000000
 32
0.000000
 13
0.000000
 23
0.000000
 33
0.000000
 40
0.000000
 40
0.000000
 40
0.000000
 40
0.000000
 40
1.000000
 40
1.000000
 40
1.000000
 40
1.000000
 10
365.250010
 20
247.299040
 30
0.000000
 10
365.023075
 20
247.168358
 30
0.000000
 10
364.831643
 20
246.976923
 30
0.000000
 10
364.700975
 20
246.750002
 30
0.000000
  0
SPLINE
  5
181
330
1F
100
AcDbEntity
  8
0
 62
     7
100
AcDbSpline
210
0.000000
220
0.000000
230
1.0
 70
     8
 71
     3
 72
     8
 73
     4
 42
0.0000000001
 43
0.0000000001
 44
0.0000000001
 12
0.000000
 22
0.000000
 32
0.000000
 13
0.000000
 23
0.000000
 33
0.000000
 40
0.000000
 40
0.000000
 40
0.000000
 40
0.000000
 40
1.000000
 40
1.000000
 40
1.000000
 40
1.000000
 10
364.700975
 20
246.750002
 30
0.000000
 10
364.569798
 20
246.523367
 30
0.000000
 10
364.499722
 20
246.261862
 30
0.000000
 10
364.500004
 20
246.000002
 30
0.000000
  0
SPLINE
  5
182
330
1F
100
AcDbEntity
  8
0
 62
     7
100
AcDbSpline
210
0.000000
220
0.000000
230
1.0
 70
     8
 71
     3
 72
     8
 73
     4
 42
0.0000000001
 43
0.0000000001
 44
0.0000000001
 12
0.000000
 22
0.000000
 32
0.000000
 13
0.000000
 23
0.000000
 33
0.000000
 40
0.000000
 40
0.000000
 40
0.000000
 40
0.000000
 40
1.000000
 40
1.000000
 40
1.000000
 40
1.000000
 10
364.500004
 20
246.000002
 30
0.000000
 10
364.499722
 20
245.738142
 30
0.000000
 10
364.569798
 20
245.476637
 30
0.000000
 10
364.700975
 20
245.250001
 30
0.000000
  0
SPLINE
  5
183
330
1F
100
AcDbEntity
  8
0
 62
     7
100
AcDbSpline
210
0.000000
220
0.000000
230
1.0
 70
     8
 71
     3
 72
     8
 73
     4
 42
0.0000000001
 43
0.0000000001
 44
0.0000000001
 12
0.000000
 22
0.000000
 32
0.000000
 13
0.000000
 23
0.000000
 33
0.000000
 40
0.000000
 40
0.000000
 40
0.000000
 40
0.000000
 40
1.000000
 40
1.000000
 40
1.000000
 40
1.000000
 10
364.700975
 20
245.250001
 30
0.000000
 10
364.831643
 20
245.023081
 30
0.000000
 10
365.023075
 20
244.831646
 30
0.000000
 10
365.250010
 20
244.700964
 30
0.000000
  0
SPLINE
  5
184
330
1F
100
AcDbEntity
  8
0
 62
     7
100
AcDbSpline
210
0.000000
220
0.000000
230
1.0
 70
     8
 71
     3
 72
     8
 73
     4
 42
0.0000000001
 43
0.0000000001
 44
0.0000000001
 12
0.000000
 22
0.000000
 32
0.000000
 13
0.000000
 23
0.000000
 33
0.000000
 40
0.000000
 40
0.000000
 40
0.000000
 40
0.000000
 40
1.000000
 40
1.000000
 40
1.000000
 40
1.000000
 10
365.250010
 20
244.700964
 30
0.000000
 10
365.476634
 20
244.569786
 30
0.000000
 10
365.738141
 20
244.499716
 30
0.000000
 10
366.000015
 20
244.500002
 30
0.000000
  0
SPLINE
  5
185
330
1F
100
AcDbEntity
  8
0
 62
     7
100
AcDbSpline
210
0.000000
220
0.000000
230
1.0
 70
     8
 71
     3
 72
     8
 73
     4
 42
0.0000000001
 43
0.0000000001
 44
0.0000000001
 12
0.000000
 22
0.000000
 32
0.000000
 13
0.000000
 23
0.000000
 33
0.000000
 40
0.000000
 40
0.000000
 40
0.000000
 40
0.000000
 40
1.000000
 40
1.000000
 40
1.000000
 40
1.000000
 10
366.000015
 20
244.500002
 30
0.000000
 10
366.261861
 20
244.499719
 30
0.000000
 10
366.523368
 20
244.569786
 30
0.000000
 10
366.750021
 20
244.700964
 30
0.000000
  0
SPLINE
  5
186
330
1F
100
AcDbEntity
  8
0
 62
     7
100
AcDbSpline
210
0.000000
220
0.000000
230
1.0
 70
     8
 71
     3
 72
     8
 73
     4
 42
0.0000000001
 43
0.0000000001
 44
0.0000000001
 12
0.000000
 22
0.000000
 32
0.000000
 13
0.000000
 23
0.000000
 33
0.000000
 40
0.000000
 40
0.000000
 40
0.000000
 40
0.000000
 40
1.000000
 40
1.000000
 40
1.000000
 40
1.000000
 10
366.750021
 20
244.700964
 30
0.000000
 10
366.976927
 20
244.831646
 30
0.000000
 10
367.168359
 20
245.023081
 30
0.000000
 10
367.299056
 20
245.250001
 30
0.000000
  0
SPLINE
  5
187
330
1F
100
AcDbEntity
  8
0
 62
     7
100
AcDbSpline
210
0.000000
220
0.000000
230
1.0
 70
     8
 71
     3
 72
     8
 73
     4
 42
0.0000000001
 43
0.0000000001
 44
0.0000000001
 12
0.000000
 22
0.000000
 32
0.000000
 13
0.000000
 23
0.000000
 33
0.000000
 40
0.000000
 40
0.000000
 40
0.000000
 40
0.000000
 40
1.000000
 40
1.000000
 40
1.000000
 40
1.000000
 10
367.299056
 20
245.250001
 30
0.000000
 10
367.430233
 20
245.476637
 30
0.000000
 10
367.500280
 20
245.738142
 30
0.000000
 10
367.499998
 20
246.000002
 30
0.000000
  0
SPLINE
  5
188
330
1F
100
AcDbEntity
  8
0
 62
     7
100
AcDbSpline
210
0.000000
220
0.000000
230
1.0
 70
     8
 71
     3
 72
     8
 73
     4
 42
0.0000000001
 43
0.0000000001
 44
0.0000000001
 12
0.000000
 22
0.000000
 32
0.000000
 13
0.000000
 23
0.000000
 33
0.000000
 40
0.000000
 40
0.000000
 40
0.000000
 40
0.000000
 40
1.000000
 40
1.000000
 40
1.000000
 40
1.000000
 10
366.500000
 20
235.000002
 30
0.000000
 10
366.500282
 20
235.261862
 30
0.000000
 10
366.430235
 20
235.523366
 30
0.000000
 10
366.299058
 20
235.750002
 30
0.000000
  0
SPLINE
  5
189
330
1F
100
AcDbEntity
  8
0
 62
     7
100
AcDbSpline
210
0.000000
220
0.000000
230
1.0
 70
     8
 71
     3
 72
     8
 73
     4
 42
0.0000000001
 43
0.0000000001
 44
0.0000000001
 12
0.000000
 22
0.000000
 32
0.000000
 13
0.000000
 23
0.000000
 33
0.000000
 40
0.000000
 40
0.000000
 40
0.000000
 40
0.000000
 40
1.000000
 40
1.000000
 40
1.000000
 40
1.000000
 10
366.299058
 20
235.750002
 30
0.000000
 10
366.168361
 20
235.976923
 30
0.000000
 10
365.976929
 20
236.168357
 30
0.000000
 10
365.749995
 20
236.299040
 30
0.000000
  0
SPLINE
  5
190
330
1F
100
AcDbEntity
  8
0
 62
     7
100
AcDbSpline
210
0.000000
220
0.000000
230
1.0
 70
     8
 71
     3
 72
     8
 73
     4
 42
0.0000000001
 43
0.0000000001
 44
0.0000000001
 12
0.000000
 22
0.000000
 32
0.000000
 13
0.000000
 23
0.000000
 33
0.000000
 40
0.000000
 40
0.000000
 40
0.000000
 40
0.000000
 40
1.000000
 40
1.000000
 40
1.000000
 40
1.000000
 10
365.749995
 20
236.299040
 30
0.000000
 10
365.523370
 20
236.430217
 30
0.000000
 10
365.261863
 20
236.500287
 30
0.000000
 10
365.000017
 20
236.500002
 30
0.000000
  0
SPLINE
  5
191
330
1F
100
AcDbEntity
  8
0
 62
     7
100
AcDbSpline
210
0.000000
220
0.000000
230
1.0
 70
     8
 71
     3
 72
     8
 73
     4
 42
0.0000000001
 43
0.0000000001
 44
0.0000000001
 12
0.000000
 22
0.000000
 32
0.000000
 13
0.000000
 23
0.000000
 33
0.000000
 40
0.000000
 40
0.000000
 40
0.000000
 40
0.000000
 40
1.000000
 40
1.000000
 40
1.000000
 40
1.000000
 10
365.000017
 20
236.500002
 30
0.000000
 10
364.738143
 20
236.500284
 30
0.000000
 10
364.476636
 20
236.430217
 30
0.000000
 10
364.250012
 20
236.299040
 30
0.000000
  0
SPLINE
  5
192
330
1F
100
AcDbEntity
  8
0
 62
     7
100
AcDbSpline
210
0.000000
220
0.000000
230
1.0
 70
     8
 71
     3
 72
     8
 73
     4
 42
0.0000000001
 43
0.0000000001
 44
0.0000000001
 12
0.000000
 22
0.000000
 32
0.000000
 13
0.000000
 23
0.000000
 33
0.000000
 40
0.000000
 40
0.000000
 40
0.000000
 40
0.000000
 40
1.000000
 40
1.000000
 40
1.000000
 40
1.000000
 10
364.250012
 20
236.299040
 30
0.000000
 10
364.023077
 20
236.168357
 30
0.000000
 10
363.831645
 20
235.976923
 30
0.000000
 10
363.700977
 20
235.750002
 30
0.000000
  0
SPLINE
  5
193
330
1F
100
AcDbEntity
  8
0
 62
     7
100
AcDbSpline
210
0.000000
220
0.000000
230
1.0
 70
     8
 71
     3
 72
     8
 73
     4
 42
0.0000000001
 43
0.0000000001
 44
0.0000000001
 12
0.000000
 22
0.000000
 32
0.000000
 13
0.000000
 23
0.000000
 33
0.000000
 40
0.000000
 40
0.000000
 40
0.000000
 40
0.000000
 40
1.000000
 40
1.000000
 40
1.000000
 40
1.000000
 10
363.700977
 20
235.750002
 30
0.000000
 10
363.569800
 20
235.523366
 30
0.000000
 10
363.499724
 20
235.261862
 30
0.000000
 10
363.500006
 20
235.000002
 30
0.000000
  0
SPLINE
  5
194
330
1F
100
AcDbEntity
  8
0
 62
     7
100
AcDbSpline
210
0.000000
220
0.000000
230
1.0
 70
     8
 71
     3
 72
     8
 73
     4
 42
0.0000000001
 43
0.0000000001
 44
0.0000000001
 12
0.000000
 22
0.000000
 32
0.000000
 13
0.000000
 23
0.000000
 33
0.000000
 40
0.000000
 40
0.000000
 40
0.000000
 40
0.000000
 40
1.000000
 40
1.000000
 40
1.000000
 40
1.000000
 10
363.500006
 20
235.000002
 30
0.000000
 10
363.500006
 20
234.738142
 30
0.000000
 10
363.569800
 20
234.476638
 30
0.000000
 10
363.700977
 20
234.250002
 30
0.000000
  0
SPLINE
  5
195
330
1F
100
AcDbEntity
  8
0
 62
     7
100
AcDbSpline
210
0.000000
220
0.000000
230
1.0
 70
     8
 71
     3
 72
     8
 73
     4
 42
0.0000000001
 43
0.0000000001
 44
0.0000000001
 12
0.000000
 22
0.000000
 32
0.000000
 13
0.000000
 23
0.000000
 33
0.000000
 40
0.000000
 40
0.000000
 40
0.000000
 40
0.000000
 40
1.000000
 40
1.000000
 40
1.000000
 40
1.000000
 10
363.700977
 20
234.250002
 30
0.000000
 10
363.831645
 20
234.023082
 30
0.000000
 10
364.023077
 20
233.831645
 30
0.000000
 10
364.250012
 20
233.700964
 30
0.000000
  0
SPLINE
  5
196
330
1F
100
AcDbEntity
  8
0
 62
     7
100
AcDbSpline
210
0.000000
220
0.000000
230
1.0
 70
     8
 71
     3
 72
     8
 73
     4
 42
0.0000000001
 43
0.0000000001
 44
0.0000000001
 12
0.000000
 22
0.000000
 32
0.000000
 13
0.000000
 23
0.000000
 33
0.000000
 40
0.000000
 40
0.000000
 40
0.000000
 40
0.000000
 40
1.000000
 40
1.000000
 40
1.000000
 40
1.000000
 10
364.250012
 20
233.700964
 30
0.000000
 10
364.476636
 20
233.569785
 30
0.000000
 10
364.738143
 20
233.499715
 30
0.000000
 10
365.000017
 20
233.500002
 30
0.000000
  0
SPLINE
  5
197
330
1F
100
AcDbEntity
  8
0
 62
     7
100
AcDbSpline
210
0.000000
220
0.000000
230
1.0
 70
     8
 71
     3
 72
     8
 73
     4
 42
0.0000000001
 43
0.0000000001
 44
0.0000000001
 12
0.000000
 22
0.000000
 32
0.000000
 13
0.000000
 23
0.000000
 33
0.000000
 40
0.000000
 40
0.000000
 40
0.000000
 40
0.000000
 40
1.000000
 40
1.000000
 40
1.000000
 40
1.000000
 10
365.000017
 20
233.500002
 30
0.000000
 10
365.261863
 20
233.499720
 30
0.000000
 10
365.523370
 20
233.569785
 30
0.000000
 10
365.749995
 20
233.700964
 30
0.000000
  0
SPLINE
  5
198
330
1F
100
AcDbEntity
  8
0
 62
     7
100
AcDbSpline
210
0.000000
220
0.000000
230
1.0
 70
     8
 71
     3
 72
     8
 73
     4
 42
0.0000000001
 43
0.0000000001
 44
0.0000000001
 12
0.000000
 22
0.000000
 32
0.000000
 13
0.000000
 23
0.000000
 33
0.000000
 40
0.000000
 40
0.000000
 40
0.000000
 40
0.000000
 40
1.000000
 40
1.000000
 40
1.000000
 40
1.000000
 10
365.749995
 20
233.700964
 30
0.000000
 10
365.976929
 20
233.831645
 30
0.000000
 10
366.168361
 20
234.023082
 30
0.000000
 10
366.299058
 20
234.250002
 30
0.000000
  0
SPLINE
  5
199
330
1F
100
AcDbEntity
  8
0
 62
     7
100
AcDbSpline
210
0.000000
220
0.000000
230
1.0
 70
     8
 71
     3
 72
     8
 73
     4
 42
0.0000000001
 43
0.0000000001
 44
0.0000000001
 12
0.000000
 22
0.000000
 32
0.000000
 13
0.000000
 23
0.000000
 33
0.000000
 40
0.000000
 40
0.000000
 40
0.000000
 40
0.000000
 40
1.000000
 40
1.000000
 40
1.000000
 40
1.000000
 10
366.299058
 20
234.250002
 30
0.000000
 10
366.430235
 20
234.476638
 30
0.000000
 10
366.500282
 20
234.738142
 30
0.000000
 10
366.500000
 20
235.000002
 30
0.000000
  0
SPLINE
  5
200
330
1F
100
AcDbEntity
  8
0
 62
     7
100
AcDbSpline
210
0.000000
220
0.000000
230
1.0
 70
     8
 71
     3
 72
     8
 73
     4
 42
0.0000000001
 43
0.0000000001
 44
0.0000000001
 12
0.000000
 22
0.000000
 32
0.000000
 13
0.000000
 23
0.000000
 33
0.000000
 40
0.000000
 40
0.000000
 40
0.000000
 40
0.000000
 40
1.000000
 40
1.000000
 40
1.000000
 40
1.000000
 10
366.500000
 20
165.000001
 30
0.000000
 10
366.500282
 20
165.261861
 30
0.000000
 10
366.430235
 20
165.523368
 30
0.000000
 10
366.299058
 20
165.750001
 30
0.000000
  0
SPLINE
  5
201
330
1F
100
AcDbEntity
  8
0
 62
     7
100
AcDbSpline
210
0.000000
220
0.000000
230
1.0
 70
     8
 71
     3
 72
     8
 73
     4
 42
0.0000000001
 43
0.0000000001
 44
0.0000000001
 12
0.000000
 22
0.000000
 32
0.000000
 13
0.000000
 23
0.000000
 33
0.000000
 40
0.000000
 40
0.000000
 40
0.000000
 40
0.000000
 40
1.000000
 40
1.000000
 40
1.000000
 40
1.000000
 10
366.299058
 20
165.750001
 30
0.000000
 10
366.168361
 20
165.976922
 30
0.000000
 10
365.976929
 20
166.168359
 30
0.000000
 10
365.749995
 20
166.299039
 30
0.000000
  0
SPLINE
  5
202
330
1F
100
AcDbEntity
  8
0
 62
     7
100
AcDbSpline
210
0.000000
220
0.000000
230
1.0
 70
     8
 71
     3
 72
     8
 73
     4
 42
0.0000000001
 43
0.0000000001
 44
0.0000000001
 12
0.000000
 22
0.000000
 32
0.000000
 13
0.000000
 23
0.000000
 33
0.000000
 40
0.000000
 40
0.000000
 40
0.000000
 40
0.000000
 40
1.000000
 40
1.000000
 40
1.000000
 40
1.000000
 10
365.749995
 20
166.299039
 30
0.000000
 10
365.523370
 20
166.430219
 30
0.000000
 10
365.261863
 20
166.500289
 30
0.000000
 10
365.000017
 20
166.500001
 30
0.000000
  0
SPLINE
  5
203
330
1F
100
AcDbEntity
  8
0
 62
     7
100
AcDbSpline
210
0.000000
220
0.000000
230
1.0
 70
     8
 71
     3
 72
     8
 73
     4
 42
0.0000000001
 43
0.0000000001
 44
0.0000000001
 12
0.000000
 22
0.000000
 32
0.000000
 13
0.000000
 23
0.000000
 33
0.000000
 40
0.000000
 40
0.000000
 40
0.000000
 40
0.000000
 40
1.000000
 40
1.000000
 40
1.000000
 40
1.000000
 10
365.000017
 20
166.500001
 30
0.000000
 10
364.738143
 20
166.500283
 30
0.000000
 10
364.476636
 20
166.430219
 30
0.000000
 10
364.250012
 20
166.299039
 30
0.000000
  0
SPLINE
  5
204
330
1F
100
AcDbEntity
  8
0
 62
     7
100
AcDbSpline
210
0.000000
220
0.000000
230
1.0
 70
     8
 71
     3
 72
     8
 73
     4
 42
0.0000000001
 43
0.0000000001
 44
0.0000000001
 12
0.000000
 22
0.000000
 32
0.000000
 13
0.000000
 23
0.000000
 33
0.000000
 40
0.000000
 40
0.000000
 40
0.000000
 40
0.000000
 40
1.000000
 40
1.000000
 40
1.000000
 40
1.000000
 10
364.250012
 20
166.299039
 30
0.000000
 10
364.023077
 20
166.168359
 30
0.000000
 10
363.831645
 20
165.976922
 30
0.000000
 10
363.700977
 20
165.750001
 30
0.000000
  0
SPLINE
  5
205
330
1F
100
AcDbEntity
  8
0
 62
     7
100
AcDbSpline
210
0.000000
220
0.000000
230
1.0
 70
     8
 71
     3
 72
     8
 73
     4
 42
0.0000000001
 43
0.0000000001
 44
0.0000000001
 12
0.000000
 22
0.000000
 32
0.000000
 13
0.000000
 23
0.000000
 33
0.000000
 40
0.000000
 40
0.000000
 40
0.000000
 40
0.000000
 40
1.000000
 40
1.000000
 40
1.000000
 40
1.000000
 10
363.700977
 20
165.750001
 30
0.000000
 10
363.569800
 20
165.523368
 30
0.000000
 10
363.499724
 20
165.261861
 30
0.000000
 10
363.500006
 20
165.000001
 30
0.000000
  0
SPLINE
  5
206
330
1F
100
AcDbEntity
  8
0
 62
     7
100
AcDbSpline
210
0.000000
220
0.000000
230
1.0
 70
     8
 71
     3
 72
     8
 73
     4
 42
0.0000000001
 43
0.0000000001
 44
0.0000000001
 12
0.000000
 22
0.000000
 32
0.000000
 13
0.000000
 23
0.000000
 33
0.000000
 40
0.000000
 40
0.000000
 40
0.000000
 40
0.000000
 40
1.000000
 40
1.000000
 40
1.000000
 40
1.000000
 10
363.500006
 20
165.000001
 30
0.000000
 10
363.500006
 20
164.738141
 30
0.000000
 10
363.569800
 20
164.476637
 30
0.000000
 10
363.700977
 20
164.250001
 30
0.000000
  0
SPLINE
  5
207
330
1F
100
AcDbEntity
  8
0
 62
     7
100
AcDbSpline
210
0.000000
220
0.000000
230
1.0
 70
     8
 71
     3
 72
     8
 73
     4
 42
0.0000000001
 43
0.0000000001
 44
0.0000000001
 12
0.000000
 22
0.000000
 32
0.000000
 13
0.000000
 23
0.000000
 33
0.000000
 40
0.000000
 40
0.000000
 40
0.000000
 40
0.000000
 40
1.000000
 40
1.000000
 40
1.000000
 40
1.000000
 10
363.700977
 20
164.250001
 30
0.000000
 10
363.831645
 20
164.023080
 30
0.000000
 10
364.023077
 20
163.831646
 30
0.000000
 10
364.250012
 20
163.700963
 30
0.000000
  0
SPLINE
  5
208
330
1F
100
AcDbEntity
  8
0
 62
     7
100
AcDbSpline
210
0.000000
220
0.000000
230
1.0
 70
     8
 71
     3
 72
     8
 73
     4
 42
0.0000000001
 43
0.0000000001
 44
0.0000000001
 12
0.000000
 22
0.000000
 32
0.000000
 13
0.000000
 23
0.000000
 33
0.000000
 40
0.000000
 40
0.000000
 40
0.000000
 40
0.000000
 40
1.000000
 40
1.000000
 40
1.000000
 40
1.000000
 10
364.250012
 20
163.700963
 30
0.000000
 10
364.476636
 20
163.569786
 30
0.000000
 10
364.738143
 20
163.499716
 30
0.000000
 10
365.000017
 20
163.500001
 30
0.000000
  0
SPLINE
  5
209
330
1F
100
AcDbEntity
  8
0
 62
     7
100
AcDbSpline
210
0.000000
220
0.000000
230
1.0
 70
     8
 71
     3
 72
     8
 73
     4
 42
0.0000000001
 43
0.0000000001
 44
0.0000000001
 12
0.000000
 22
0.000000
 32
0.000000
 13
0.000000
 23
0.000000
 33
0.000000
 40
0.000000
 40
0.000000
 40
0.000000
 40
0.000000
 40
1.000000
 40
1.000000
 40
1.000000
 40
1.000000
 10
365.000017
 20
163.500001
 30
0.000000
 10
365.261863
 20
163.499719
 30
0.000000
 10
365.523370
 20
163.569786
 30
0.000000
 10
365.749995
 20
163.700963
 30
0.000000
  0
SPLINE
  5
210
330
1F
100
AcDbEntity
  8
0
 62
     7
100
AcDbSpline
210
0.000000
220
0.000000
230
1.0
 70
     8
 71
     3
 72
     8
 73
     4
 42
0.0000000001
 43
0.0000000001
 44
0.0000000001
 12
0.000000
 22
0.000000
 32
0.000000
 13
0.000000
 23
0.000000
 33
0.000000
 40
0.000000
 40
0.000000
 40
0.000000
 40
0.000000
 40
1.000000
 40
1.000000
 40
1.000000
 40
1.000000
 10
365.749995
 20
163.700963
 30
0.000000
 10
365.976929
 20
163.831646
 30
0.000000
 10
366.168361
 20
164.023080
 30
0.000000
 10
366.299058
 20
164.250001
 30
0.000000
  0
SPLINE
  5
211
330
1F
100
AcDbEntity
  8
0
 62
     7
100
AcDbSpline
210
0.000000
220
0.000000
230
1.0
 70
     8
 71
     3
 72
     8
 73
     4
 42
0.0000000001
 43
0.0000000001
 44
0.0000000001
 12
0.000000
 22
0.000000
 32
0.000000
 13
0.000000
 23
0.000000
 33
0.000000
 40
0.000000
 40
0.000000
 40
0.000000
 40
0.000000
 40
1.000000
 40
1.000000
 40
1.000000
 40
1.000000
 10
366.299058
 20
164.250001
 30
0.000000
 10
366.430235
 20
164.476637
 30
0.000000
 10
366.500282
 20
164.738141
 30
0.000000
 10
366.500000
 20
165.000001
 30
0.000000
  0
SPLINE
  5
212
330
1F
100
AcDbEntity
  8
0
 62
     7
100
AcDbSpline
210
0.000000
220
0.000000
230
1.0
 70
     8
 71
     3
 72
     8
 73
     4
 42
0.0000000001
 43
0.0000000001
 44
0.0000000001
 12
0.000000
 22
0.000000
 32
0.000000
 13
0.000000
 23
0.000000
 33
0.000000
 40
0.000000
 40
0.000000
 40
0.000000
 40
0.000000
 40
1.000000
 40
1.000000
 40
1.000000
 40
1.000000
 10
367.499998
 20
154.000001
 30
0.000000
 10
367.500280
 20
154.261860
 30
0.000000
 10
367.430233
 20
154.523368
 30
0.000000
 10
367.299056
 20
154.750000
 30
0.000000
  0
SPLINE
  5
213
330
1F
100
AcDbEntity
  8
0
 62
     7
100
AcDbSpline
210
0.000000
220
0.000000
230
1.0
 70
     8
 71
     3
 72
     8
 73
   0
LINE
  5
609
330
1F
100
AcDbEntity
  8
0
  62
7
100
AcDbLine
 10
277.741930
 20
201.826191
 30
0.000000
 11
238.994622
 21
164.494310
 31
0.000000
  0
SPLINE
  5
610
330
1F
100
AcDbEntity
  8
0
 62
     7
100
AcDbSpline
210
0.000000
220
0.000000
230
1.0
 70
     8
 71
     3
 72
     8
 73
     4
 42
0.0000000001
 43
0.0000000001
 44
0.0000000001
 12
0.000000
 22
0.000000
 32
0.000000
 13
0.000000
 23
0.000000
 33
0.000000
 40
0.000000
 40
0.000000
 40
0.000000
 40
0.000000
 40
1.000000
 40
1.000000
 40
1.000000
 40
1.000000
 10
238.994622
 20
164.494310
 30
0.000000
 10
238.513049
 20
164.030317
 30
0.000000
 10
238.596468
 20
163.194487
 30
0.000000
 10
239.180381
 20
162.631194
 30
0.000000
  0
SPLINE
  5
611
330
1F
100
AcDbEntity
  8
0
 62
     7
100
AcDbSpline
210
0.000000
220
0.000000
230
1.0
 70
     8
 71
     3
 72
     8
 73
     4
 42
0.0000000001
 43
0.0000000001
 44
0.0000000001
 12
0.000000
 22
0.000000
 32
0.000000
 13
0.000000
 23
0.000000
 33
0.000000
 40
0.000000
 40
0.000000
 40
0.000000
 40
0.000000
 40
1.000000
 40
1.000000
 40
1.000000
 40
1.000000
 10
239.180381
 20
162.631194
 30
0.000000
 10
239.498479
 20
162.324724
 30
0.000000
 10
239.912595
 20
162.148631
 30
0.000000
 10
240.316302
 20
162.148631
 30
0.000000
  0
SPLINE
  5
612
330
1F
100
AcDbEntity
  8
0
 62
     7
100
AcDbSpline
210
0.000000
220
0.000000
230
1.0
 70
     8
 71
     3
 72
     8
 73
     4
 42
0.0000000001
 43
0.0000000001
 44
0.0000000001
 12
0.000000
 22
0.000000
 32
0.000000
 13
0.000000
 23
0.000000
 33
0.000000
 40
0.000000
 40
0.000000
 40
0.000000
 40
0.000000
 40
1.000000
 40
1.000000
 40
1.000000
 40
1.000000
 10
245.570403
 20
159.111073
 30
0.000000
 10
245.881826
 20
159.111073
 30
0.000000
 10
246.165460
 20
159.218947
 30
0.000000
 10
246.368245
 20
159.413971
 30
0.000000
  0
LINE
  5
613
330
1F
100
AcDbEntity
  8
0
  62
7
100
AcDbLine
 10
246.368245
 20
159.413971
 30
0.000000
 11
279.861447
 21
191.683378
 31
0.000000
  0
SPLINE
  5
614
330
1F
100
AcDbEntity
  8
0
 62
     7
100
AcDbSpline
210
0.000000
220
0.000000
230
1.0
 70
     8
 71
     3
 72
     8
 73
     4
 42
0.0000000001
 43
0.0000000001
 44
0.0000000001
 12
0.000000
 22
0.000000
 32
0.000000
 13
0.000000
 23
0.000000
 33
0.000000
 40
0.000000
 40
0.000000
 40
0.000000
 40
0.000000
 40
1.000000
 40
1.000000
 40
1.000000
 40
1.000000
 10
279.861447
 20
191.683378
 30
0.000000
 10
280.343426
 20
192.147733
 30
0.000000
 10
280.259634
 20
192.983915
 30
0.000000
 10
279.675321
 20
193.546852
 30
0.000000
  0
SPLINE
  5
615
330
1F
100
AcDbEntity
  8
0
 62
     7
100
AcDbSpline
210
0.000000
220
0.000000
230
1.0
 70
     8
 71
     3
 72
     8
 73
     4
 42
0.0000000001
 43
0.0000000001
 44
0.0000000001
 12
0.000000
 22
0.000000
 32
0.000000
 13
0.000000
 23
0.000000
 33
0.000000
 40
0.000000
 40
0.000000
 40
0.000000
 40
0.000000
 40
1.000000
 40
1.000000
 40
1.000000
 40
1.000000
 10
279.675321
 20
193.546852
 30
0.000000
 10
279.357257
 20
193.853673
 30
0.000000
 10
278.943152
 20
194.029413
 30
0.000000
 10
278.539433
 20
194.029413
 30
0.000000
  0
SPLINE
  5
616
330
1F
100
AcDbEntity
  8
0
 62
     7
100
AcDbSpline
210
0.000000
220
0.000000
230
1.0
 70
     8
 71
     3
 72
     8
 73
     4
 42
0.0000000001
 43
0.0000000001
 44
0.0000000001
 12
0.000000
 22
0.000000
 32
0.000000
 13
0.000000
 23
0.000000
 33
0.000000
 40
0.000000
 40
0.000000
 40
0.000000
 40
0.000000
 40
1.000000
 40
1.000000
 40
1.000000
 40
1.000000
 10
278.539433
 20
194.029413
 30
0.000000
 10
278.227945
 20
194.029413
 30
0.000000
 10
277.944735
 20
193.921903
 30
0.000000
 10
277.741563
 20
193.726157
 30
0.000000
  0
LINE
  5
617
330
1F
100
AcDbEntity
  8
0
  62
7
100
AcDbLine
 10
277.741563
 20
193.726157
 30
0.000000
 11
244.248366
 21
161.456749
 31
0.000000
  0
SPLINE
  5
618
330
1F
100
AcDbEntity
  8
0
 62
     7
100
AcDbSpline
210
0.000000
220
0.000000
230
1.0
 70
     8
 71
     3
 72
     8
 73
     4
 42
0.0000000001
 43
0.0000000001
 44
0.0000000001
 12
0.000000
 22
0.000000
 32
0.000000
 13
0.000000
 23
0.000000
 33
0.000000
 40
0.000000
 40
0.000000
 40
0.000000
 40
0.000000
 40
1.000000
 40
1.000000
 40
1.000000
 40
1.000000
 10
244.248366
 20
161.456749
 30
0.000000
 10
243.766410
 20
160.992400
 30
0.000000
 10
243.850188
 20
160.156571
 30
0.000000
 10
244.434481
 20
159.593634
 30
0.000000
  0
SPLINE
  5
619
330
1F
100
AcDbEntity
  8
0
 62
     7
100
AcDbSpline
210
0.000000
220
0.000000
230
1.0
 70
     8
 71
     3
 72
     8
 73
     4
 42
0.0000000001
 43
0.0000000001
 44
0.0000000001
 12
 102
}
330
44
100
AcDbXrecord
340
1B
  0
MLINESTYLE
  5
18
102
{ACAD_REACTORS
330
17
102
}
330
17
100
AcDbMlineStyle
  2
STANDARD
 70
     0
  3

 62
   256
 51
90.0
 52
90.0
 71
     2
 49
0.5
 62
   256
  6
BYLAYER
 49
-0.5
 62
   256
  6
BYLAYER
  0
ENDSEC
  0
EOF
